<svg xmlns="http://www.w3.org/2000/svg" viewBox="0 0 755.89 85.23"><defs><style>.cls-1{fill:#231f20;}</style></defs><title>Asset 5</title><g id="Layer_2" data-name="Layer 2"><g id="Layer_1-2" data-name="Layer 1"><path class="cls-1" d="M42.62,0A42.62,42.62,0,1,0,85.23,42.62,42.62,42.62,0,0,0,42.62,0Zm-8,61.94a4.91,4.91,0,0,0,4.13,1.79q7.64,0,13.44-12.49h2.68Q47.78,67,36.68,67a9.53,9.53,0,0,1-7.44-3.21q-2.88-3.21-2.87-8.67,0-6.92,3.71-15.62a43.22,43.22,0,0,1,10.54-15q6.83-6.3,11.91-6.3a5.76,5.76,0,0,1,4.74,2,7.54,7.54,0,0,1,1.62,4.93q0,6-6,11.58T34.78,47.38a30.11,30.11,0,0,0-1.56,9.2A8.6,8.6,0,0,0,34.61,61.94Z"/><path class="cls-1" d="M54.3,25.3a4.82,4.82,0,0,0-.86-3.15,3.19,3.19,0,0,0-2.59-1q-3.35,0-7.89,6.5T35.62,44.54a43.75,43.75,0,0,0,12.94-8.92Q54.3,29.92,54.3,25.3Z"/><path class="cls-1" d="M54.3,25.3a4.82,4.82,0,0,0-.86-3.15,3.19,3.19,0,0,0-2.59-1q-3.35,0-7.89,6.5T35.62,44.54a43.75,43.75,0,0,0,12.94-8.92Q54.3,29.92,54.3,25.3Z"/><path class="cls-1" d="M54.3,25.3a4.82,4.82,0,0,0-.86-3.15,3.19,3.19,0,0,0-2.59-1q-3.35,0-7.89,6.5T35.62,44.54a43.75,43.75,0,0,0,12.94-8.92Q54.3,29.92,54.3,25.3Z"/><path class="cls-1" d="M54.3,25.3a4.82,4.82,0,0,0-.86-3.15,3.19,3.19,0,0,0-2.59-1q-3.35,0-7.89,6.5T35.62,44.54a43.75,43.75,0,0,0,12.94-8.92Q54.3,29.92,54.3,25.3Z"/><path class="cls-1" d="M54.3,25.3a4.82,4.82,0,0,0-.86-3.15,3.19,3.19,0,0,0-2.59-1q-3.35,0-7.89,6.5L35.62,44.54a43.75,43.75,0,0,0,12.94-8.92Q54.3,29.92,54.3,25.3Z"/><path d="M155.8,27.74c-2.55-4.89-6.62-7.74-13-7.74-10.7,0-16.81,9.37-16.81,22.62,0,12.84,6.21,22.62,16.91,22.62,6.42,0,10.19-2.75,14-9.07l12,7.13c-4.89,10.09-13.45,16.1-26.39,16.1-18.64,0-31.18-14.26-31.18-36.78,0-21.7,13-36.78,31.69-36.78,13.45,0,21.6,6.52,26.08,15.79Z"/><path d="M220.3,79.39c-19.46,0-31-15.08-31-36.78s11.51-36.78,31-36.78,31,15.08,31,36.78S239.76,79.39,220.3,79.39Zm0-59.4C208.78,20,204,29.88,204,42.61s4.79,22.62,16.3,22.62,16.3-9.88,16.3-22.62S231.81,20,220.3,20Z"/><path d="M319.42,78.27,306.69,52.6H292.32V78.27H278.06V7h33.21c13.45,0,24.55,7.44,24.55,22.62,0,10.7-4.58,17.42-13.65,21l13.65,27.71ZM311,20.81H292.32V39.15H311c6.62,0,10.19-3.06,10.19-9.27C321.16,23.46,317.29,20.81,311,20.81Z"/><path d="M403.78,27.74c-2.55-4.89-6.62-7.74-13-7.74-10.7,0-16.81,9.37-16.81,22.62,0,12.84,6.21,22.62,16.91,22.62,6.42,0,10.19-2.75,14-9.07l12,7.13c-4.89,10.09-13.45,16.1-26.39,16.1-18.64,0-31.18-14.26-31.18-36.78,0-21.7,13-36.78,31.69-36.78,13.45,0,21.6,6.52,26.08,15.79Z"/><path d="M468.28,79.39c-19.46,0-31-15.08-31-36.78s11.51-36.78,31-36.78,31,15.08,31,36.78S487.74,79.39,468.28,79.39Zm0-59.4C456.76,20,452,29.88,452,42.61s4.79,22.62,16.3,22.62,16.3-9.88,16.3-22.62S479.79,20,468.28,20Z"/><path d="M567.41,78.27,554.67,52.6H540.3V78.27H526V7h33.21c13.45,0,24.55,7.44,24.55,22.62,0,10.7-4.58,17.42-13.65,21l13.65,27.71Zm-8.46-57.46H540.3V39.15h18.65c6.62,0,10.19-3.06,10.19-9.27C569.14,23.46,565.27,20.81,558.95,20.81Z"/><path d="M657,78.27l-5.6-15.89H625.28l-5.6,15.89H604.4L631.7,7h13.86l27.1,71.32ZM641.89,35.89c-1.43-4.18-2.85-8.46-3.57-11.11-.71,2.65-2.14,6.93-3.57,11.11l-4.58,12.94h16.3Z"/><path d="M743.16,78.27,717,39.35c-1.73-2.65-4.08-6.21-5-8,0,2.65.2,11.61.2,15.59V78.27H698.13V7h13.65L737,44.65c1.73,2.65,4.08,6.21,5,8,0-2.65-.2-11.61-.2-15.59V7h14.06V78.27Z"/></g></g></svg>