<?xml version="1.0" encoding="utf-8"?>
<!-- Generator: Adobe Illustrator 19.0.0, SVG Export Plug-In . SVG Version: 6.00 Build 0)  -->
<svg version="1.1" id="Layer_1" xmlns="http://www.w3.org/2000/svg" xmlns:xlink="http://www.w3.org/1999/xlink" x="0px" y="0px"
	 viewBox="-348 268.4 262.1 25.6" style="enable-background:new -348 268.4 262.1 25.6;" xml:space="preserve">
<style type="text/css">
	.st0{fill:#231F20;}
</style>
<g id="XMLID_28_">
	<g id="XMLID_29_">
		<path id="XMLID_104_" class="st0" d="M-333.5,284.8c-2.3,6.5-6.2,9.1-9.3,9.1c-2.7,0-5.2-2-5.2-6.7c0-9.6,8.3-18.8,13.6-18.8
			c2.4,0,3.6,1.8,3.6,3.4c0,1.5-1,2.1-1.6,2.1c-0.8,0-1.7-0.7-1.8-2.1c0-0.7-0.1-2-1.3-2c-4.2,0-9,13.3-9,18.7
			c0,2.5,1.6,3.7,2.9,3.7c2.9,0,5.7-4,7-7.4C-334.6,284.8-333.5,284.8-333.5,284.8z"/>
		<path id="XMLID_101_" class="st0" d="M-315.9,268.4c2.9,0,6,2.4,6,8.3c0,7.9-5.1,17.2-12.1,17.2c-6,0-6-7.3-6-8.5
			C-328,277.2-322.1,268.4-315.9,268.4z M-321.9,292.6c6.2,0,8.9-16.1,8.9-18.7c0-3-1.5-4.1-3-4.1c-5.8,0-8.9,14.5-8.9,19
			C-325,290.2-324.2,292.6-321.9,292.6z"/>
		<path id="XMLID_99_" class="st0" d="M-305.2,276.3c1.2-3.3,3.8-7.9,6.7-7.9c1.1,0,2.4,0.9,2.4,4c0,2.5-0.8,5.5-1.3,7.1l0.1,0.1
			c0.4-1,2.3-5.3,2.8-6.2c1.1-2,2.8-5.1,5.1-5.1c1.4,0,2.3,1,2.3,2.2s-0.8,2-1.7,2c-0.8,0-1.2-0.5-1.6-1c-0.2-0.2-0.4-0.4-0.7-0.4
			c-2.1,0-6.2,11.3-8.2,16.8c-0.5,1.2-0.9,2.5-1.1,3.3l-0.7,2.2h-3.5l4.6-15.3c1-3.2,1.4-4.4,1.4-6c0-0.5-0.1-1.7-0.9-1.7
			c-1.3,0-3.5,3.4-4.5,5.9H-305.2z"/>
		<path id="XMLID_97_" class="st0" d="M-273,284.8c-2.3,6.5-6.2,9.1-9.3,9.1c-2.7,0-5.2-2-5.2-6.7c0-9.6,8.3-18.8,13.6-18.8
			c2.4,0,3.6,1.8,3.6,3.4c0,1.5-1,2.1-1.6,2.1c-0.8,0-1.7-0.7-1.8-2.1c0-0.7-0.1-2-1.3-2c-4.2,0-9,13.3-9,18.7
			c0,2.5,1.6,3.7,2.9,3.7c2.9,0,5.7-4,7-7.4C-274.1,284.8-273,284.8-273,284.8z"/>
		<path id="XMLID_94_" class="st0" d="M-255.3,268.4c2.9,0,6,2.4,6,8.3c0,7.9-5.1,17.2-12.1,17.2c-6.1,0-6.1-7.3-6.1-8.4
			C-267.5,277.2-261.6,268.4-255.3,268.4z M-261.3,292.6c6.2,0,8.9-16.1,8.9-18.7c0-3-1.5-4.1-3-4.1c-5.8,0-8.9,14.5-8.9,19
			C-264.4,290.2-263.7,292.6-261.3,292.6z"/>
		<path id="XMLID_92_" class="st0" d="M-244.7,276.3c1.2-3.2,3.8-7.9,6.7-7.9c1.1,0,2.4,0.9,2.4,4c0,2.5-0.8,5.5-1.3,7.1l0.1,0.1
			c0.4-1,2.3-5.3,2.8-6.2c1.1-2,2.8-5.1,5.1-5.1c1.4,0,2.3,1,2.3,2.2s-0.8,2-1.7,2c-0.8,0-1.2-0.5-1.6-1c-0.2-0.2-0.4-0.4-0.7-0.4
			c-2.1,0-6.2,11.3-8.2,16.8c-0.5,1.2-0.9,2.5-1.1,3.3l-0.7,2.1h-3.4l4.6-15.4c1-3.2,1.4-4.4,1.4-6c0-0.5-0.1-1.7-0.9-1.7
			c-1.3,0-3.5,3.4-4.5,5.8h-1.3L-244.7,276.3L-244.7,276.3z"/>
		<path id="XMLID_89_" class="st0" d="M-205.4,268.9l-5.2,17c-0.4,1.1-1.1,3.7-1.1,4.5c0,0.5,0.2,1.2,1.1,1.2c1.8,0,3.9-3.4,4.3-4.2
			c0.1-0.1,0.2-0.3,0.2-0.4h1.2c-1.8,3.9-4.9,6.9-7.1,6.9c-2.3,0-2.9-2.1-2.9-3.5c0-0.5,0.1-1.5,0.6-3l-0.1-0.1
			c-1.1,2.1-4.8,6.7-8.3,6.7c-2.3,0-4.9-2-4.9-6.4c0-9.3,9.2-19,14.4-19c1.7,0,3.2,1.1,3.5,2.9h0.1l0.7-2.4h3.5L-205.4,268.9
			L-205.4,268.9z M-221.7,292.2c0.7,0,2-0.5,3.5-1.8c1.5-1.2,3.1-3.3,4.5-6.4c1.7-3.8,3.3-9.4,3.3-11.2c0-1.8-1-2.9-2.4-2.9
			c-5.2,0-11.2,13.3-11.2,18.4C-224.1,289.8-224.1,292.2-221.7,292.2z"/>
		<path id="XMLID_87_" class="st0" d="M-177.8,287.6c-0.8,1.5-3.5,6.3-7.3,6.3c-0.8,0-3.2-0.4-3.2-3.2c0-1.2,0.4-2.4,1.4-5.2
			l3.1-8.8c0.8-2.4,1.2-3.7,1.2-4.7c0-0.6-0.2-1.8-1.7-1.8s-3.6,1.8-5.8,5.1c-2.2,3.3-4.3,8-6,13.5l-1.4,4.6h-3.6l5.1-16.4l0.4-1.3
			c0.2-0.7,0.4-1.3,0.5-1.5c0.2-0.6,0.6-1.8,0.6-2.4c0-0.2,0-1-0.8-1c-1.2,0-2.9,2.1-4,4.2h-1.4c2.6-4.6,5-6.6,6.9-6.6
			c2,0,2.3,1.9,2.3,2.8c0,1.7-0.9,4.9-1.9,7.6l0.1,0.1c4.4-9.3,8.1-10.5,10-10.5c1.8,0,4,1.2,4,4.2c0,1.2-0.3,2.2-1.2,4.9l-3.1,9.3
			c-0.1,0.2-0.2,0.8-0.4,1.2c-0.5,1.3-0.8,2.3-0.8,2.9c0,0.7,0.5,1.2,1.1,1.2s2.3-0.6,4.5-4.5C-179.2,287.6-177.8,287.6-177.8,287.6
			z"/>
	</g>
</g>
<g>
	<path d="M-160.7,287.1l-1.1-3h-4.1l-1,3h-1.8l4-10.7h1.9l4,10.7H-160.7z M-162.2,282.6l-1-2.9c-0.1-0.2-0.2-0.5-0.3-0.9
		s-0.2-0.7-0.3-0.9c-0.1,0.6-0.3,1.3-0.6,2l-1,2.8h3.2V282.6z"/>
	<path d="M-148.4,281.7c0,1.8-0.5,3.1-1.5,4.1c-1,0.9-2.4,1.4-4.2,1.4h-3v-10.7h3.3c1.7,0,3,0.5,4,1.4S-148.4,280-148.4,281.7z
		 M-150.3,281.7c0-2.6-1.2-3.8-3.6-3.8h-1.5v7.8h1.2C-151.6,285.7-150.3,284.4-150.3,281.7z"/>
	<path d="M-137.2,277.8c-1,0-1.8,0.4-2.4,1.1c-0.6,0.7-0.9,1.7-0.9,2.9c0,1.3,0.3,2.3,0.8,3s1.4,1,2.4,1c0.5,0,0.9,0,1.3-0.1
		c0.4-0.1,0.9-0.2,1.3-0.3v1.5c-0.8,0.3-1.8,0.5-2.9,0.5c-1.6,0-2.8-0.5-3.6-1.4s-1.3-2.3-1.3-4.1c0-1.1,0.2-2.1,0.6-2.9
		c0.4-0.8,1-1.5,1.8-1.9s1.7-0.7,2.7-0.7c1.1,0,2.1,0.2,3,0.7l-0.6,1.5c-0.4-0.2-0.7-0.3-1.1-0.5S-136.7,277.8-137.2,277.8z"/>
	<path d="M-125.9,287.1h-6.1v-10.7h6.1v1.5h-4.3v2.9h4v1.5h-4v3.4h4.3V287.1z"/>
	<path d="M-114.4,287.1h-2.1l-5.3-8.5h-0.1v0.5c0.1,0.9,0.1,1.7,0.1,2.5v5.6h-1.6v-10.7h2.1l5.2,8.5l0,0c0-0.1,0-0.5-0.1-1.2
		c0-0.7,0-1.3,0-1.7v-5.6h1.6v10.6H-114.4z"/>
	<path d="M-107.6,287.1h-1.7v-9.2h-3.1v-1.5h8v1.5h-3.1L-107.6,287.1L-107.6,287.1z"/>
	<path d="M-96.5,287.1h-6.1v-10.7h6.1v1.5h-4.3v2.9h4v1.5h-4v3.4h4.3V287.1z"/>
	<path d="M-92.2,282.9v4.3h-1.7v-10.7h3c1.4,0,2.4,0.3,3.1,0.8s1,1.3,1,2.3c0,1.3-0.7,2.3-2.1,2.8l3,4.7h-2l-2.6-4.3h-1.7V282.9z
		 M-92.2,281.4h1.2c0.8,0,1.4-0.2,1.8-0.5c0.4-0.3,0.5-0.8,0.5-1.3c0-0.6-0.2-1-0.6-1.3s-1-0.4-1.8-0.4h-1.2v3.5H-92.2z"/>
</g>
</svg>
