<?xml version="1.0" encoding="utf-8"?>
<!-- Generator: Adobe Illustrator 19.0.0, SVG Export Plug-In . SVG Version: 6.00 Build 0)  -->
<svg version="1.1" id="Layer_1" xmlns="http://www.w3.org/2000/svg" xmlns:xlink="http://www.w3.org/1999/xlink" x="0px" y="0px"
	 viewBox="0 0 247 48.2" style="enable-background:new 0 0 247 48.2;" xml:space="preserve">
<style type="text/css">
	.st0{fill:#231F20;}
	.st1{fill:url(#XMLID_110_);}
	.st2{fill:url(#XMLID_111_);}
	.st3{fill:url(#XMLID_112_);}
	.st4{fill:url(#XMLID_113_);}
	.st5{fill:url(#XMLID_114_);}
	.st6{fill:url(#XMLID_115_);}
	.st7{fill:url(#XMLID_116_);}
	.st8{fill:none;stroke:url(#XMLID_117_);stroke-width:3;stroke-linecap:round;stroke-linejoin:round;stroke-miterlimit:10;}
	.st9{fill:none;stroke:url(#XMLID_118_);stroke-width:3;stroke-linecap:round;stroke-linejoin:round;stroke-miterlimit:10;}
	.st10{fill:none;stroke:url(#XMLID_119_);stroke-width:3;stroke-linecap:round;stroke-linejoin:round;stroke-miterlimit:10;}
	.st11{fill:none;stroke:url(#XMLID_120_);stroke-width:3;stroke-linecap:round;stroke-linejoin:round;stroke-miterlimit:10;}
	.st12{fill:none;stroke:url(#XMLID_121_);stroke-width:3;stroke-linecap:round;stroke-linejoin:round;stroke-miterlimit:10;}
	.st13{fill:none;stroke:url(#XMLID_122_);stroke-width:3;stroke-linecap:round;stroke-linejoin:round;stroke-miterlimit:10;}
	.st14{fill:none;stroke:url(#XMLID_123_);stroke-width:3;stroke-linecap:round;stroke-linejoin:round;stroke-miterlimit:10;}
</style>
<g id="XMLID_2_">
	<g id="XMLID_681_">
		<path id="XMLID_696_" class="st0" d="M2,1.5h3.7l7.4,26.1L23.4,1.5h0.8l10.3,26.1L42,1.5h3.7L35.3,37.7h-0.7L23.9,10.4l-11,27.4
			h-0.7L2,1.5z"/>
		<path id="XMLID_693_" class="st0" d="M79.2,28.2l2.9,1.5c-0.9,1.9-2,3.4-3.3,4.5c-1.3,1.1-2.7,2-4.2,2.6c-1.6,0.6-3.3,0.9-5.3,0.9
			c-4.4,0-7.8-1.4-10.2-4.3c-2.5-2.9-3.7-6.1-3.7-9.7c0-3.4,1-6.4,3.1-9.1c2.6-3.4,6.2-5.1,10.6-5.1c4.5,0,8.2,1.7,10.9,5.2
			C82,17.3,83,20.3,83,24h-24c0.1,3.1,1.1,5.7,3,7.7c1.9,2,4.3,3,7.1,3c1.4,0,2.7-0.2,4-0.7c1.3-0.5,2.4-1.1,3.3-1.9
			S78.2,30,79.2,28.2z M79.2,21c-0.5-1.8-1.1-3.3-2-4.4s-2-2-3.5-2.7c-1.4-0.7-3-1-4.6-1c-2.6,0-4.9,0.8-6.8,2.5
			C61,16.7,60,18.6,59.3,21H79.2z"/>
		<path id="XMLID_691_" class="st0" d="M94.9,30.6l3.1-1.9c2.2,4,4.7,6,7.5,6c1.2,0,2.4-0.3,3.4-0.9c1.1-0.6,1.9-1.3,2.4-2.3
			c0.6-0.9,0.8-2,0.8-3c0-1.2-0.4-2.4-1.2-3.6c-1.1-1.6-3.2-3.3-6.2-4.9c-3-2.3-4.9-3.9-5.6-5c-1.3-1.7-1.9-3.5-1.9-5.5
			c0-1.6,0.4-3,1.1-4.3C99,4,100.1,3,101.5,2.2c1.4-0.8,2.9-1.1,4.5-1.1c1.7,0,3.3,0.4,4.8,1.3c1.5,0.9,3.1,2.4,4.7,4.7l-3,2.2
			c-1.4-1.8-2.5-3-3.5-3.6c-1-0.6-2-0.9-3.1-0.9c-1.4,0-2.6,0.4-3.6,1.3c-0.9,0.9-1.4,2-1.4,3.3c0,0.8,0.2,1.5,0.5,2.3
			c0.3,0.7,0.9,1.5,1.8,2.4c0.5,0.5,2,1.7,4.7,3.6c3.1,2.3,5.3,4.2,6.4,5.7c1.2,1.5,1.7,3.2,1.7,5c0,2.6-1,4.9-3,6.9
			c-2,1.9-4.4,2.9-7.3,2.9c-2.2,0-4.2-0.6-6-1.8C98,35.3,96.4,33.3,94.9,30.6z"/>
		<path id="XMLID_689_" class="st0" d="M142.1,37.3c-1.8,0.7-3.4,1-4.8,1c-2.6-0.1-4.7-1.5-6.2-4.1c-1-1.7-1.5-3.5-1.3-5.4V1h3.5
			v12.9h6.4v3h-6.3v11.3c0.4,3.5,1.4,5.7,2.8,6.5c1.6,0.8,3.3,0.7,5-0.2C141.4,35.7,141.8,36.6,142.1,37.3z"/>
		<path id="XMLID_686_" class="st0" d="M166.9,9.6c4.1,0,7.5,1.5,10.3,4.5c2.5,2.7,3.7,6,3.7,9.7c0,3.7-1.3,7-3.9,9.8
			c-2.6,2.8-5.9,4.2-10,4.2c-4.1,0-7.5-1.4-10-4.2c-2.6-2.8-3.9-6.1-3.9-9.8c0-3.7,1.2-6.9,3.7-9.7C159.4,11.1,162.8,9.6,166.9,9.6z
			 M166.9,12.9c-2.8,0-5.3,1.1-7.3,3.2c-2.1,2.1-3.1,4.7-3.1,7.7c0,1.9,0.5,3.7,1.4,5.4c0.9,1.7,2.2,3,3.8,3.9
			c1.6,0.9,3.3,1.4,5.2,1.4c1.9,0,3.7-0.5,5.3-1.4s2.8-2.2,3.8-3.9s1.4-3.5,1.4-5.4c0-3-1-5.5-3.1-7.7
			C172.2,14,169.8,12.9,166.9,12.9z"/>
		<path id="XMLID_684_" class="st0" d="M194.7,25.2v-3.2c0.3-1.6,0.6-2.9,1.1-3.9c1.1-2.8,2.7-4.9,4.6-6.2c1.9-1.3,3.5-2,4.8-2
			c0.9,0,2,0.3,3,0.9l-1.8,2.9c-1.5-0.6-3-0.1-4.5,1.3c-1.5,1.4-2.5,3-3.1,4.7c-0.4,1.5-0.6,4.4-0.6,8.5v9.1h-3.5V25.2z"/>
		<path id="XMLID_682_" class="st0" d="M219.1,10.3h3.6l9.2,20.6l8.9-20.6h3.7l-16,36.5h-3.6l5.2-11.8L219.1,10.3z"/>
	</g>
	<g id="XMLID_664_">
		<path id="XMLID_679_" class="st0" d="M2,1.5h3.7l7.4,26.1L23.4,1.5h0.8l10.3,26.1L42,1.5h3.7L35.3,37.7h-0.7L23.9,10.4l-11,27.4
			h-0.7L2,1.5z"/>
		<path id="XMLID_676_" class="st0" d="M79.2,28.2l2.9,1.5c-0.9,1.9-2,3.4-3.3,4.5c-1.3,1.1-2.7,2-4.2,2.6c-1.6,0.6-3.3,0.9-5.3,0.9
			c-4.4,0-7.8-1.4-10.2-4.3c-2.5-2.9-3.7-6.1-3.7-9.7c0-3.4,1-6.4,3.1-9.1c2.6-3.4,6.2-5.1,10.6-5.1c4.5,0,8.2,1.7,10.9,5.2
			C82,17.3,83,20.3,83,24h-24c0.1,3.1,1.1,5.7,3,7.7c1.9,2,4.3,3,7.1,3c1.4,0,2.7-0.2,4-0.7c1.3-0.5,2.4-1.1,3.3-1.9
			S78.2,30,79.2,28.2z M79.2,21c-0.5-1.8-1.1-3.3-2-4.4s-2-2-3.5-2.7c-1.4-0.7-3-1-4.6-1c-2.6,0-4.9,0.8-6.8,2.5
			C61,16.7,60,18.6,59.3,21H79.2z"/>
		<path id="XMLID_674_" class="st0" d="M94.9,30.6l3.1-1.9c2.2,4,4.7,6,7.5,6c1.2,0,2.4-0.3,3.4-0.9c1.1-0.6,1.9-1.3,2.4-2.3
			c0.6-0.9,0.8-2,0.8-3c0-1.2-0.4-2.4-1.2-3.6c-1.1-1.6-3.2-3.3-6.2-4.9c-3-2.3-4.9-3.9-5.6-5c-1.3-1.7-1.9-3.5-1.9-5.5
			c0-1.6,0.4-3,1.1-4.3C99,4,100.1,3,101.5,2.2c1.4-0.8,2.9-1.1,4.5-1.1c1.7,0,3.3,0.4,4.8,1.3c1.5,0.9,3.1,2.4,4.7,4.7l-3,2.2
			c-1.4-1.8-2.5-3-3.5-3.6c-1-0.6-2-0.9-3.1-0.9c-1.4,0-2.6,0.4-3.6,1.3c-0.9,0.9-1.4,2-1.4,3.3c0,0.8,0.2,1.5,0.5,2.3
			c0.3,0.7,0.9,1.5,1.8,2.4c0.5,0.5,2,1.7,4.7,3.6c3.1,2.3,5.3,4.2,6.4,5.7c1.2,1.5,1.7,3.2,1.7,5c0,2.6-1,4.9-3,6.9
			c-2,1.9-4.4,2.9-7.3,2.9c-2.2,0-4.2-0.6-6-1.8C98,35.3,96.4,33.3,94.9,30.6z"/>
		<path id="XMLID_672_" class="st0" d="M142.1,37.3c-1.8,0.7-3.4,1-4.8,1c-2.6-0.1-4.7-1.5-6.2-4.1c-1-1.7-1.5-3.5-1.3-5.4V1h3.5
			v12.9h6.4v3h-6.3v11.3c0.4,3.5,1.4,5.7,2.8,6.5c1.6,0.8,3.3,0.7,5-0.2C141.4,35.7,141.8,36.6,142.1,37.3z"/>
		<path id="XMLID_669_" class="st0" d="M166.9,9.6c4.1,0,7.5,1.5,10.3,4.5c2.5,2.7,3.7,6,3.7,9.7c0,3.7-1.3,7-3.9,9.8
			c-2.6,2.8-5.9,4.2-10,4.2c-4.1,0-7.5-1.4-10-4.2c-2.6-2.8-3.9-6.1-3.9-9.8c0-3.7,1.2-6.9,3.7-9.7C159.4,11.1,162.8,9.6,166.9,9.6z
			 M166.9,12.9c-2.8,0-5.3,1.1-7.3,3.2c-2.1,2.1-3.1,4.7-3.1,7.7c0,1.9,0.5,3.7,1.4,5.4c0.9,1.7,2.2,3,3.8,3.9
			c1.6,0.9,3.3,1.4,5.2,1.4c1.9,0,3.7-0.5,5.3-1.4s2.8-2.2,3.8-3.9s1.4-3.5,1.4-5.4c0-3-1-5.5-3.1-7.7
			C172.2,14,169.8,12.9,166.9,12.9z"/>
		<path id="XMLID_667_" class="st0" d="M194.7,25.2v-3.2c0.3-1.6,0.6-2.9,1.1-3.9c1.1-2.8,2.7-4.9,4.6-6.2c1.9-1.3,3.5-2,4.8-2
			c0.9,0,2,0.3,3,0.9l-1.8,2.9c-1.5-0.6-3-0.1-4.5,1.3c-1.5,1.4-2.5,3-3.1,4.7c-0.4,1.5-0.6,4.4-0.6,8.5v9.1h-3.5V25.2z"/>
		<path id="XMLID_665_" class="st0" d="M219.1,10.3h3.6l9.2,20.6l8.9-20.6h3.7l-16,36.5h-3.6l5.2-11.8L219.1,10.3z"/>
	</g>
	<g id="XMLID_647_">
		<path id="XMLID_662_" class="st0" d="M2,1.5h3.7l7.4,26.1L23.4,1.5h0.8l10.3,26.1L42,1.5h3.7L35.3,37.7h-0.7L23.9,10.4l-11,27.4
			h-0.7L2,1.5z"/>
		<path id="XMLID_659_" class="st0" d="M79.2,28.2l2.9,1.5c-0.9,1.9-2,3.4-3.3,4.5c-1.3,1.1-2.7,2-4.2,2.6c-1.6,0.6-3.3,0.9-5.3,0.9
			c-4.4,0-7.8-1.4-10.2-4.3c-2.5-2.9-3.7-6.1-3.7-9.7c0-3.4,1-6.4,3.1-9.1c2.6-3.4,6.2-5.1,10.6-5.1c4.5,0,8.2,1.7,10.9,5.2
			C82,17.3,83,20.3,83,24h-24c0.1,3.1,1.1,5.7,3,7.7c1.9,2,4.3,3,7.1,3c1.4,0,2.7-0.2,4-0.7c1.3-0.5,2.4-1.1,3.3-1.9
			S78.2,30,79.2,28.2z M79.2,21c-0.5-1.8-1.1-3.3-2-4.4s-2-2-3.5-2.7c-1.4-0.7-3-1-4.6-1c-2.6,0-4.9,0.8-6.8,2.5
			C61,16.7,60,18.6,59.3,21H79.2z"/>
		<path id="XMLID_657_" class="st0" d="M94.9,30.6l3.1-1.9c2.2,4,4.7,6,7.5,6c1.2,0,2.4-0.3,3.4-0.9c1.1-0.6,1.9-1.3,2.4-2.3
			c0.6-0.9,0.8-2,0.8-3c0-1.2-0.4-2.4-1.2-3.6c-1.1-1.6-3.2-3.3-6.2-4.9c-3-2.3-4.9-3.9-5.6-5c-1.3-1.7-1.9-3.5-1.9-5.5
			c0-1.6,0.4-3,1.1-4.3C99,4,100.1,3,101.5,2.2c1.4-0.8,2.9-1.1,4.5-1.1c1.7,0,3.3,0.4,4.8,1.3c1.5,0.9,3.1,2.4,4.7,4.7l-3,2.2
			c-1.4-1.8-2.5-3-3.5-3.6c-1-0.6-2-0.9-3.1-0.9c-1.4,0-2.6,0.4-3.6,1.3c-0.9,0.9-1.4,2-1.4,3.3c0,0.8,0.2,1.5,0.5,2.3
			c0.3,0.7,0.9,1.5,1.8,2.4c0.5,0.5,2,1.7,4.7,3.6c3.1,2.3,5.3,4.2,6.4,5.7c1.2,1.5,1.7,3.2,1.7,5c0,2.6-1,4.9-3,6.9
			c-2,1.9-4.4,2.9-7.3,2.9c-2.2,0-4.2-0.6-6-1.8C98,35.3,96.4,33.3,94.9,30.6z"/>
		<path id="XMLID_655_" class="st0" d="M142.1,37.3c-1.8,0.7-3.4,1-4.8,1c-2.6-0.1-4.7-1.5-6.2-4.1c-1-1.7-1.5-3.5-1.3-5.4V1h3.5
			v12.9h6.4v3h-6.3v11.3c0.4,3.5,1.4,5.7,2.8,6.5c1.6,0.8,3.3,0.7,5-0.2C141.4,35.7,141.8,36.6,142.1,37.3z"/>
		<path id="XMLID_652_" class="st0" d="M166.9,9.6c4.1,0,7.5,1.5,10.3,4.5c2.5,2.7,3.7,6,3.7,9.7c0,3.7-1.3,7-3.9,9.8
			c-2.6,2.8-5.9,4.2-10,4.2c-4.1,0-7.5-1.4-10-4.2c-2.6-2.8-3.9-6.1-3.9-9.8c0-3.7,1.2-6.9,3.7-9.7C159.4,11.1,162.8,9.6,166.9,9.6z
			 M166.9,12.9c-2.8,0-5.3,1.1-7.3,3.2c-2.1,2.1-3.1,4.7-3.1,7.7c0,1.9,0.5,3.7,1.4,5.4c0.9,1.7,2.2,3,3.8,3.9
			c1.6,0.9,3.3,1.4,5.2,1.4c1.9,0,3.7-0.5,5.3-1.4s2.8-2.2,3.8-3.9s1.4-3.5,1.4-5.4c0-3-1-5.5-3.1-7.7
			C172.2,14,169.8,12.9,166.9,12.9z"/>
		<path id="XMLID_650_" class="st0" d="M194.7,25.2v-3.2c0.3-1.6,0.6-2.9,1.1-3.9c1.1-2.8,2.7-4.9,4.6-6.2c1.9-1.3,3.5-2,4.8-2
			c0.9,0,2,0.3,3,0.9l-1.8,2.9c-1.5-0.6-3-0.1-4.5,1.3c-1.5,1.4-2.5,3-3.1,4.7c-0.4,1.5-0.6,4.4-0.6,8.5v9.1h-3.5V25.2z"/>
		<path id="XMLID_648_" class="st0" d="M219.1,10.3h3.6l9.2,20.6l8.9-20.6h3.7l-16,36.5h-3.6l5.2-11.8L219.1,10.3z"/>
	</g>
	<g id="XMLID_630_">
		<path id="XMLID_645_" class="st0" d="M2,1.5h3.7l7.4,26.1L23.4,1.5h0.8l10.3,26.1L42,1.5h3.7L35.3,37.7h-0.7L23.9,10.4l-11,27.4
			h-0.7L2,1.5z"/>
		<path id="XMLID_642_" class="st0" d="M79.2,28.2l2.9,1.5c-0.9,1.9-2,3.4-3.3,4.5c-1.3,1.1-2.7,2-4.2,2.6c-1.6,0.6-3.3,0.9-5.3,0.9
			c-4.4,0-7.8-1.4-10.2-4.3c-2.5-2.9-3.7-6.1-3.7-9.7c0-3.4,1-6.4,3.1-9.1c2.6-3.4,6.2-5.1,10.6-5.1c4.5,0,8.2,1.7,10.9,5.2
			C82,17.3,83,20.3,83,24h-24c0.1,3.1,1.1,5.7,3,7.7c1.9,2,4.3,3,7.1,3c1.4,0,2.7-0.2,4-0.7c1.3-0.5,2.4-1.1,3.3-1.9
			S78.2,30,79.2,28.2z M79.2,21c-0.5-1.8-1.1-3.3-2-4.4s-2-2-3.5-2.7c-1.4-0.7-3-1-4.6-1c-2.6,0-4.9,0.8-6.8,2.5
			C61,16.7,60,18.6,59.3,21H79.2z"/>
		<path id="XMLID_640_" class="st0" d="M94.9,30.6l3.1-1.9c2.2,4,4.7,6,7.5,6c1.2,0,2.4-0.3,3.4-0.9c1.1-0.6,1.9-1.3,2.4-2.3
			c0.6-0.9,0.8-2,0.8-3c0-1.2-0.4-2.4-1.2-3.6c-1.1-1.6-3.2-3.3-6.2-4.9c-3-2.3-4.9-3.9-5.6-5c-1.3-1.7-1.9-3.5-1.9-5.5
			c0-1.6,0.4-3,1.1-4.3C99,4,100.1,3,101.5,2.2c1.4-0.8,2.9-1.1,4.5-1.1c1.7,0,3.3,0.4,4.8,1.3c1.5,0.9,3.1,2.4,4.7,4.7l-3,2.2
			c-1.4-1.8-2.5-3-3.5-3.6c-1-0.6-2-0.9-3.1-0.9c-1.4,0-2.6,0.4-3.6,1.3c-0.9,0.9-1.4,2-1.4,3.3c0,0.8,0.2,1.5,0.5,2.3
			c0.3,0.7,0.9,1.5,1.8,2.4c0.5,0.5,2,1.7,4.7,3.6c3.1,2.3,5.3,4.2,6.4,5.7c1.2,1.5,1.7,3.2,1.7,5c0,2.6-1,4.9-3,6.9
			c-2,1.9-4.4,2.9-7.3,2.9c-2.2,0-4.2-0.6-6-1.8C98,35.3,96.4,33.3,94.9,30.6z"/>
		<path id="XMLID_638_" class="st0" d="M142.1,37.3c-1.8,0.7-3.4,1-4.8,1c-2.6-0.1-4.7-1.5-6.2-4.1c-1-1.7-1.5-3.5-1.3-5.4V1h3.5
			v12.9h6.4v3h-6.3v11.3c0.4,3.5,1.4,5.7,2.8,6.5c1.6,0.8,3.3,0.7,5-0.2C141.4,35.7,141.8,36.6,142.1,37.3z"/>
		<path id="XMLID_635_" class="st0" d="M166.9,9.6c4.1,0,7.5,1.5,10.3,4.5c2.5,2.7,3.7,6,3.7,9.7c0,3.7-1.3,7-3.9,9.8
			c-2.6,2.8-5.9,4.2-10,4.2c-4.1,0-7.5-1.4-10-4.2c-2.6-2.8-3.9-6.1-3.9-9.8c0-3.7,1.2-6.9,3.7-9.7C159.4,11.1,162.8,9.6,166.9,9.6z
			 M166.9,12.9c-2.8,0-5.3,1.1-7.3,3.2c-2.1,2.1-3.1,4.7-3.1,7.7c0,1.9,0.5,3.7,1.4,5.4c0.9,1.7,2.2,3,3.8,3.9
			c1.6,0.9,3.3,1.4,5.2,1.4c1.9,0,3.7-0.5,5.3-1.4s2.8-2.2,3.8-3.9s1.4-3.5,1.4-5.4c0-3-1-5.5-3.1-7.7
			C172.2,14,169.8,12.9,166.9,12.9z"/>
		<path id="XMLID_633_" class="st0" d="M194.7,25.2v-3.2c0.3-1.6,0.6-2.9,1.1-3.9c1.1-2.8,2.7-4.9,4.6-6.2c1.9-1.3,3.5-2,4.8-2
			c0.9,0,2,0.3,3,0.9l-1.8,2.9c-1.5-0.6-3-0.1-4.5,1.3c-1.5,1.4-2.5,3-3.1,4.7c-0.4,1.5-0.6,4.4-0.6,8.5v9.1h-3.5V25.2z"/>
		<path id="XMLID_631_" class="st0" d="M219.1,10.3h3.6l9.2,20.6l8.9-20.6h3.7l-16,36.5h-3.6l5.2-11.8L219.1,10.3z"/>
	</g>
	<g id="XMLID_613_">
		<path id="XMLID_628_" class="st0" d="M2,1.5h3.7l7.4,26.1L23.4,1.5h0.8l10.3,26.1L42,1.5h3.7L35.3,37.7h-0.7L23.9,10.4l-11,27.4
			h-0.7L2,1.5z"/>
		<path id="XMLID_625_" class="st0" d="M79.2,28.2l2.9,1.5c-0.9,1.9-2,3.4-3.3,4.5c-1.3,1.1-2.7,2-4.2,2.6c-1.6,0.6-3.3,0.9-5.3,0.9
			c-4.4,0-7.8-1.4-10.2-4.3c-2.5-2.9-3.7-6.1-3.7-9.7c0-3.4,1-6.4,3.1-9.1c2.6-3.4,6.2-5.1,10.6-5.1c4.5,0,8.2,1.7,10.9,5.2
			C82,17.3,83,20.3,83,24h-24c0.1,3.1,1.1,5.7,3,7.7c1.9,2,4.3,3,7.1,3c1.4,0,2.7-0.2,4-0.7c1.3-0.5,2.4-1.1,3.3-1.9
			S78.2,30,79.2,28.2z M79.2,21c-0.5-1.8-1.1-3.3-2-4.4s-2-2-3.5-2.7c-1.4-0.7-3-1-4.6-1c-2.6,0-4.9,0.8-6.8,2.5
			C61,16.7,60,18.6,59.3,21H79.2z"/>
		<path id="XMLID_623_" class="st0" d="M94.9,30.6l3.1-1.9c2.2,4,4.7,6,7.5,6c1.2,0,2.4-0.3,3.4-0.9c1.1-0.6,1.9-1.3,2.4-2.3
			c0.6-0.9,0.8-2,0.8-3c0-1.2-0.4-2.4-1.2-3.6c-1.1-1.6-3.2-3.3-6.2-4.9c-3-2.3-4.9-3.9-5.6-5c-1.3-1.7-1.9-3.5-1.9-5.5
			c0-1.6,0.4-3,1.1-4.3C99,4,100.1,3,101.5,2.2c1.4-0.8,2.9-1.1,4.5-1.1c1.7,0,3.3,0.4,4.8,1.3c1.5,0.9,3.1,2.4,4.7,4.7l-3,2.2
			c-1.4-1.8-2.5-3-3.5-3.6c-1-0.6-2-0.9-3.1-0.9c-1.4,0-2.6,0.4-3.6,1.3c-0.9,0.9-1.4,2-1.4,3.3c0,0.8,0.2,1.5,0.5,2.3
			c0.3,0.7,0.9,1.5,1.8,2.4c0.5,0.5,2,1.7,4.7,3.6c3.1,2.3,5.3,4.2,6.4,5.7c1.2,1.5,1.7,3.2,1.7,5c0,2.6-1,4.9-3,6.9
			c-2,1.9-4.4,2.9-7.3,2.9c-2.2,0-4.2-0.6-6-1.8C98,35.3,96.4,33.3,94.9,30.6z"/>
		<path id="XMLID_621_" class="st0" d="M142.1,37.3c-1.8,0.7-3.4,1-4.8,1c-2.6-0.1-4.7-1.5-6.2-4.1c-1-1.7-1.5-3.5-1.3-5.4V1h3.5
			v12.9h6.4v3h-6.3v11.3c0.4,3.5,1.4,5.7,2.8,6.5c1.6,0.8,3.3,0.7,5-0.2C141.4,35.7,141.8,36.6,142.1,37.3z"/>
		<path id="XMLID_618_" class="st0" d="M166.9,9.6c4.1,0,7.5,1.5,10.3,4.5c2.5,2.7,3.7,6,3.7,9.7c0,3.7-1.3,7-3.9,9.8
			c-2.6,2.8-5.9,4.2-10,4.2c-4.1,0-7.5-1.4-10-4.2c-2.6-2.8-3.9-6.1-3.9-9.8c0-3.7,1.2-6.9,3.7-9.7C159.4,11.1,162.8,9.6,166.9,9.6z
			 M166.9,12.9c-2.8,0-5.3,1.1-7.3,3.2c-2.1,2.1-3.1,4.7-3.1,7.7c0,1.9,0.5,3.7,1.4,5.4c0.9,1.7,2.2,3,3.8,3.9
			c1.6,0.9,3.3,1.4,5.2,1.4c1.9,0,3.7-0.5,5.3-1.4s2.8-2.2,3.8-3.9s1.4-3.5,1.4-5.4c0-3-1-5.5-3.1-7.7
			C172.2,14,169.8,12.9,166.9,12.9z"/>
		<path id="XMLID_616_" class="st0" d="M194.7,25.2v-3.2c0.3-1.6,0.6-2.9,1.1-3.9c1.1-2.8,2.7-4.9,4.6-6.2c1.9-1.3,3.5-2,4.8-2
			c0.9,0,2,0.3,3,0.9l-1.8,2.9c-1.5-0.6-3-0.1-4.5,1.3c-1.5,1.4-2.5,3-3.1,4.7c-0.4,1.5-0.6,4.4-0.6,8.5v9.1h-3.5V25.2z"/>
		<path id="XMLID_614_" class="st0" d="M219.1,10.3h3.6l9.2,20.6l8.9-20.6h3.7l-16,36.5h-3.6l5.2-11.8L219.1,10.3z"/>
	</g>
	<g id="XMLID_596_">
		<path id="XMLID_611_" class="st0" d="M2,1.5h3.7l7.4,26.1L23.4,1.5h0.8l10.3,26.1L42,1.5h3.7L35.3,37.7h-0.7L23.9,10.4l-11,27.4
			h-0.7L2,1.5z"/>
		<path id="XMLID_608_" class="st0" d="M79.2,28.2l2.9,1.5c-0.9,1.9-2,3.4-3.3,4.5c-1.3,1.1-2.7,2-4.2,2.6c-1.6,0.6-3.3,0.9-5.3,0.9
			c-4.4,0-7.8-1.4-10.2-4.3c-2.5-2.9-3.7-6.1-3.7-9.7c0-3.4,1-6.4,3.1-9.1c2.6-3.4,6.2-5.1,10.6-5.1c4.5,0,8.2,1.7,10.9,5.2
			C82,17.3,83,20.3,83,24h-24c0.1,3.1,1.1,5.7,3,7.7c1.9,2,4.3,3,7.1,3c1.4,0,2.7-0.2,4-0.7c1.3-0.5,2.4-1.1,3.3-1.9
			S78.2,30,79.2,28.2z M79.2,21c-0.5-1.8-1.1-3.3-2-4.4s-2-2-3.5-2.7c-1.4-0.7-3-1-4.6-1c-2.6,0-4.9,0.8-6.8,2.5
			C61,16.7,60,18.6,59.3,21H79.2z"/>
		<path id="XMLID_606_" class="st0" d="M94.9,30.6l3.1-1.9c2.2,4,4.7,6,7.5,6c1.2,0,2.4-0.3,3.4-0.9c1.1-0.6,1.9-1.3,2.4-2.3
			c0.6-0.9,0.8-2,0.8-3c0-1.2-0.4-2.4-1.2-3.6c-1.1-1.6-3.2-3.3-6.2-4.9c-3-2.3-4.9-3.9-5.6-5c-1.3-1.7-1.9-3.5-1.9-5.5
			c0-1.6,0.4-3,1.1-4.3C99,4,100.1,3,101.5,2.2c1.4-0.8,2.9-1.1,4.5-1.1c1.7,0,3.3,0.4,4.8,1.3c1.5,0.9,3.1,2.4,4.7,4.7l-3,2.2
			c-1.4-1.8-2.5-3-3.5-3.6c-1-0.6-2-0.9-3.1-0.9c-1.4,0-2.6,0.4-3.6,1.3c-0.9,0.9-1.4,2-1.4,3.3c0,0.8,0.2,1.5,0.5,2.3
			c0.3,0.7,0.9,1.5,1.8,2.4c0.5,0.5,2,1.7,4.7,3.6c3.1,2.3,5.3,4.2,6.4,5.7c1.2,1.5,1.7,3.2,1.7,5c0,2.6-1,4.9-3,6.9
			c-2,1.9-4.4,2.9-7.3,2.9c-2.2,0-4.2-0.6-6-1.8C98,35.3,96.4,33.3,94.9,30.6z"/>
		<path id="XMLID_604_" class="st0" d="M142.1,37.3c-1.8,0.7-3.4,1-4.8,1c-2.6-0.1-4.7-1.5-6.2-4.1c-1-1.7-1.5-3.5-1.3-5.4V1h3.5
			v12.9h6.4v3h-6.3v11.3c0.4,3.5,1.4,5.7,2.8,6.5c1.6,0.8,3.3,0.7,5-0.2C141.4,35.7,141.8,36.6,142.1,37.3z"/>
		<path id="XMLID_601_" class="st0" d="M166.9,9.6c4.1,0,7.5,1.5,10.3,4.5c2.5,2.7,3.7,6,3.7,9.7c0,3.7-1.3,7-3.9,9.8
			c-2.6,2.8-5.9,4.2-10,4.2c-4.1,0-7.5-1.4-10-4.2c-2.6-2.8-3.9-6.1-3.9-9.8c0-3.7,1.2-6.9,3.7-9.7C159.4,11.1,162.8,9.6,166.9,9.6z
			 M166.9,12.9c-2.8,0-5.3,1.1-7.3,3.2c-2.1,2.1-3.1,4.7-3.1,7.7c0,1.9,0.5,3.7,1.4,5.4c0.9,1.7,2.2,3,3.8,3.9
			c1.6,0.9,3.3,1.4,5.2,1.4c1.9,0,3.7-0.5,5.3-1.4s2.8-2.2,3.8-3.9s1.4-3.5,1.4-5.4c0-3-1-5.5-3.1-7.7
			C172.2,14,169.8,12.9,166.9,12.9z"/>
		<path id="XMLID_599_" class="st0" d="M194.7,25.2v-3.2c0.3-1.6,0.6-2.9,1.1-3.9c1.1-2.8,2.7-4.9,4.6-6.2c1.9-1.3,3.5-2,4.8-2
			c0.9,0,2,0.3,3,0.9l-1.8,2.9c-1.5-0.6-3-0.1-4.5,1.3c-1.5,1.4-2.5,3-3.1,4.7c-0.4,1.5-0.6,4.4-0.6,8.5v9.1h-3.5V25.2z"/>
		<path id="XMLID_597_" class="st0" d="M219.1,10.3h3.6l9.2,20.6l8.9-20.6h3.7l-16,36.5h-3.6l5.2-11.8L219.1,10.3z"/>
	</g>
	<g id="XMLID_579_">
		<path id="XMLID_594_" class="st0" d="M2,1.5h3.7l7.4,26.1L23.4,1.5h0.8l10.3,26.1L42,1.5h3.7L35.3,37.7h-0.7L23.9,10.4l-11,27.4
			h-0.7L2,1.5z"/>
		<path id="XMLID_591_" class="st0" d="M79.2,28.2l2.9,1.5c-0.9,1.9-2,3.4-3.3,4.5c-1.3,1.1-2.7,2-4.2,2.6c-1.6,0.6-3.3,0.9-5.3,0.9
			c-4.4,0-7.8-1.4-10.2-4.3c-2.5-2.9-3.7-6.1-3.7-9.7c0-3.4,1-6.4,3.1-9.1c2.6-3.4,6.2-5.1,10.6-5.1c4.5,0,8.2,1.7,10.9,5.2
			C82,17.3,83,20.3,83,24h-24c0.1,3.1,1.1,5.7,3,7.7c1.9,2,4.3,3,7.1,3c1.4,0,2.7-0.2,4-0.7c1.3-0.5,2.4-1.1,3.3-1.9
			S78.2,30,79.2,28.2z M79.2,21c-0.5-1.8-1.1-3.3-2-4.4s-2-2-3.5-2.7c-1.4-0.7-3-1-4.6-1c-2.6,0-4.9,0.8-6.8,2.5
			C61,16.7,60,18.6,59.3,21H79.2z"/>
		<path id="XMLID_589_" class="st0" d="M94.9,30.6l3.1-1.9c2.2,4,4.7,6,7.5,6c1.2,0,2.4-0.3,3.4-0.9c1.1-0.6,1.9-1.3,2.4-2.3
			c0.6-0.9,0.8-2,0.8-3c0-1.2-0.4-2.4-1.2-3.6c-1.1-1.6-3.2-3.3-6.2-4.9c-3-2.3-4.9-3.9-5.6-5c-1.3-1.7-1.9-3.5-1.9-5.5
			c0-1.6,0.4-3,1.1-4.3C99,4,100.1,3,101.5,2.2c1.4-0.8,2.9-1.1,4.5-1.1c1.7,0,3.3,0.4,4.8,1.3c1.5,0.9,3.1,2.4,4.7,4.7l-3,2.2
			c-1.4-1.8-2.5-3-3.5-3.6c-1-0.6-2-0.9-3.1-0.9c-1.4,0-2.6,0.4-3.6,1.3c-0.9,0.9-1.4,2-1.4,3.3c0,0.8,0.2,1.5,0.5,2.3
			c0.3,0.7,0.9,1.5,1.8,2.4c0.5,0.5,2,1.7,4.7,3.6c3.1,2.3,5.3,4.2,6.4,5.7c1.2,1.5,1.7,3.2,1.7,5c0,2.6-1,4.9-3,6.9
			c-2,1.9-4.4,2.9-7.3,2.9c-2.2,0-4.2-0.6-6-1.8C98,35.3,96.4,33.3,94.9,30.6z"/>
		<path id="XMLID_587_" class="st0" d="M142.1,37.3c-1.8,0.7-3.4,1-4.8,1c-2.6-0.1-4.7-1.5-6.2-4.1c-1-1.7-1.5-3.5-1.3-5.4V1h3.5
			v12.9h6.4v3h-6.3v11.3c0.4,3.5,1.4,5.7,2.8,6.5c1.6,0.8,3.3,0.7,5-0.2C141.4,35.7,141.8,36.6,142.1,37.3z"/>
		<path id="XMLID_584_" class="st0" d="M166.9,9.6c4.1,0,7.5,1.5,10.3,4.5c2.5,2.7,3.7,6,3.7,9.7c0,3.7-1.3,7-3.9,9.8
			c-2.6,2.8-5.9,4.2-10,4.2c-4.1,0-7.5-1.4-10-4.2c-2.6-2.8-3.9-6.1-3.9-9.8c0-3.7,1.2-6.9,3.7-9.7C159.4,11.1,162.8,9.6,166.9,9.6z
			 M166.9,12.9c-2.8,0-5.3,1.1-7.3,3.2c-2.1,2.1-3.1,4.7-3.1,7.7c0,1.9,0.5,3.7,1.4,5.4c0.9,1.7,2.2,3,3.8,3.9
			c1.6,0.9,3.3,1.4,5.2,1.4c1.9,0,3.7-0.5,5.3-1.4s2.8-2.2,3.8-3.9s1.4-3.5,1.4-5.4c0-3-1-5.5-3.1-7.7
			C172.2,14,169.8,12.9,166.9,12.9z"/>
		<path id="XMLID_582_" class="st0" d="M194.7,25.2v-3.2c0.3-1.6,0.6-2.9,1.1-3.9c1.1-2.8,2.7-4.9,4.6-6.2c1.9-1.3,3.5-2,4.8-2
			c0.9,0,2,0.3,3,0.9l-1.8,2.9c-1.5-0.6-3-0.1-4.5,1.3c-1.5,1.4-2.5,3-3.1,4.7c-0.4,1.5-0.6,4.4-0.6,8.5v9.1h-3.5V25.2z"/>
		<path id="XMLID_580_" class="st0" d="M219.1,10.3h3.6l9.2,20.6l8.9-20.6h3.7l-16,36.5h-3.6l5.2-11.8L219.1,10.3z"/>
	</g>
	<g id="XMLID_562_">
		<path id="XMLID_577_" class="st0" d="M2,1.5h3.7l7.4,26.1L23.4,1.5h0.8l10.3,26.1L42,1.5h3.7L35.3,37.7h-0.7L23.9,10.4l-11,27.4
			h-0.7L2,1.5z"/>
		<path id="XMLID_574_" class="st0" d="M79.2,28.2l2.9,1.5c-0.9,1.9-2,3.4-3.3,4.5c-1.3,1.1-2.7,2-4.2,2.6c-1.6,0.6-3.3,0.9-5.3,0.9
			c-4.4,0-7.8-1.4-10.2-4.3c-2.5-2.9-3.7-6.1-3.7-9.7c0-3.4,1-6.4,3.1-9.1c2.6-3.4,6.2-5.1,10.6-5.1c4.5,0,8.2,1.7,10.9,5.2
			C82,17.3,83,20.3,83,24h-24c0.1,3.1,1.1,5.7,3,7.7c1.9,2,4.3,3,7.1,3c1.4,0,2.7-0.2,4-0.7c1.3-0.5,2.4-1.1,3.3-1.9
			S78.2,30,79.2,28.2z M79.2,21c-0.5-1.8-1.1-3.3-2-4.4s-2-2-3.5-2.7c-1.4-0.7-3-1-4.6-1c-2.6,0-4.9,0.8-6.8,2.5
			C61,16.7,60,18.6,59.3,21H79.2z"/>
		<path id="XMLID_572_" class="st0" d="M94.9,30.6l3.1-1.9c2.2,4,4.7,6,7.5,6c1.2,0,2.4-0.3,3.4-0.9c1.1-0.6,1.9-1.3,2.4-2.3
			c0.6-0.9,0.8-2,0.8-3c0-1.2-0.4-2.4-1.2-3.6c-1.1-1.6-3.2-3.3-6.2-4.9c-3-2.3-4.9-3.9-5.6-5c-1.3-1.7-1.9-3.5-1.9-5.5
			c0-1.6,0.4-3,1.1-4.3C99,4,100.1,3,101.5,2.2c1.4-0.8,2.9-1.1,4.5-1.1c1.7,0,3.3,0.4,4.8,1.3c1.5,0.9,3.1,2.4,4.7,4.7l-3,2.2
			c-1.4-1.8-2.5-3-3.5-3.6c-1-0.6-2-0.9-3.1-0.9c-1.4,0-2.6,0.4-3.6,1.3c-0.9,0.9-1.4,2-1.4,3.3c0,0.8,0.2,1.5,0.5,2.3
			c0.3,0.7,0.9,1.5,1.8,2.4c0.5,0.5,2,1.7,4.7,3.6c3.1,2.3,5.3,4.2,6.4,5.7c1.2,1.5,1.7,3.2,1.7,5c0,2.6-1,4.9-3,6.9
			c-2,1.9-4.4,2.9-7.3,2.9c-2.2,0-4.2-0.6-6-1.8C98,35.3,96.4,33.3,94.9,30.6z"/>
		<path id="XMLID_570_" class="st0" d="M142.1,37.3c-1.8,0.7-3.4,1-4.8,1c-2.6-0.1-4.7-1.5-6.2-4.1c-1-1.7-1.5-3.5-1.3-5.4V1h3.5
			v12.9h6.4v3h-6.3v11.3c0.4,3.5,1.4,5.7,2.8,6.5c1.6,0.8,3.3,0.7,5-0.2C141.4,35.7,141.8,36.6,142.1,37.3z"/>
		<path id="XMLID_567_" class="st0" d="M166.9,9.6c4.1,0,7.5,1.5,10.3,4.5c2.5,2.7,3.7,6,3.7,9.7c0,3.7-1.3,7-3.9,9.8
			c-2.6,2.8-5.9,4.2-10,4.2c-4.1,0-7.5-1.4-10-4.2c-2.6-2.8-3.9-6.1-3.9-9.8c0-3.7,1.2-6.9,3.7-9.7C159.4,11.1,162.8,9.6,166.9,9.6z
			 M166.9,12.9c-2.8,0-5.3,1.1-7.3,3.2c-2.1,2.1-3.1,4.7-3.1,7.7c0,1.9,0.5,3.7,1.4,5.4c0.9,1.7,2.2,3,3.8,3.9
			c1.6,0.9,3.3,1.4,5.2,1.4c1.9,0,3.7-0.5,5.3-1.4s2.8-2.2,3.8-3.9s1.4-3.5,1.4-5.4c0-3-1-5.5-3.1-7.7
			C172.2,14,169.8,12.9,166.9,12.9z"/>
		<path id="XMLID_565_" class="st0" d="M194.7,25.2v-3.2c0.3-1.6,0.6-2.9,1.1-3.9c1.1-2.8,2.7-4.9,4.6-6.2c1.9-1.3,3.5-2,4.8-2
			c0.9,0,2,0.3,3,0.9l-1.8,2.9c-1.5-0.6-3-0.1-4.5,1.3c-1.5,1.4-2.5,3-3.1,4.7c-0.4,1.5-0.6,4.4-0.6,8.5v9.1h-3.5V25.2z"/>
		<path id="XMLID_563_" class="st0" d="M219.1,10.3h3.6l9.2,20.6l8.9-20.6h3.7l-16,36.5h-3.6l5.2-11.8L219.1,10.3z"/>
	</g>
	<g id="XMLID_545_">
		<path id="XMLID_560_" class="st0" d="M2,1.5h3.7l7.4,26.1L23.4,1.5h0.8l10.3,26.1L42,1.5h3.7L35.3,37.7h-0.7L23.9,10.4l-11,27.4
			h-0.7L2,1.5z"/>
		<path id="XMLID_557_" class="st0" d="M79.2,28.2l2.9,1.5c-0.9,1.9-2,3.4-3.3,4.5c-1.3,1.1-2.7,2-4.2,2.6c-1.6,0.6-3.3,0.9-5.3,0.9
			c-4.4,0-7.8-1.4-10.2-4.3c-2.5-2.9-3.7-6.1-3.7-9.7c0-3.4,1-6.4,3.1-9.1c2.6-3.4,6.2-5.1,10.6-5.1c4.5,0,8.2,1.7,10.9,5.2
			C82,17.3,83,20.3,83,24h-24c0.1,3.1,1.1,5.7,3,7.7c1.9,2,4.3,3,7.1,3c1.4,0,2.7-0.2,4-0.7c1.3-0.5,2.4-1.1,3.3-1.9
			S78.2,30,79.2,28.2z M79.2,21c-0.5-1.8-1.1-3.3-2-4.4s-2-2-3.5-2.7c-1.4-0.7-3-1-4.6-1c-2.6,0-4.9,0.8-6.8,2.5
			C61,16.7,60,18.6,59.3,21H79.2z"/>
		<path id="XMLID_555_" class="st0" d="M94.9,30.6l3.1-1.9c2.2,4,4.7,6,7.5,6c1.2,0,2.4-0.3,3.4-0.9c1.1-0.6,1.9-1.3,2.4-2.3
			c0.6-0.9,0.8-2,0.8-3c0-1.2-0.4-2.4-1.2-3.6c-1.1-1.6-3.2-3.3-6.2-4.9c-3-2.3-4.9-3.9-5.6-5c-1.3-1.7-1.9-3.5-1.9-5.5
			c0-1.6,0.4-3,1.1-4.3C99,4,100.1,3,101.5,2.2c1.4-0.8,2.9-1.1,4.5-1.1c1.7,0,3.3,0.4,4.8,1.3c1.5,0.9,3.1,2.4,4.7,4.7l-3,2.2
			c-1.4-1.8-2.5-3-3.5-3.6c-1-0.6-2-0.9-3.1-0.9c-1.4,0-2.6,0.4-3.6,1.3c-0.9,0.9-1.4,2-1.4,3.3c0,0.8,0.2,1.5,0.5,2.3
			c0.3,0.7,0.9,1.5,1.8,2.4c0.5,0.5,2,1.7,4.7,3.6c3.1,2.3,5.3,4.2,6.4,5.7c1.2,1.5,1.7,3.2,1.7,5c0,2.6-1,4.9-3,6.9
			c-2,1.9-4.4,2.9-7.3,2.9c-2.2,0-4.2-0.6-6-1.8C98,35.3,96.4,33.3,94.9,30.6z"/>
		<path id="XMLID_553_" class="st0" d="M142.1,37.3c-1.8,0.7-3.4,1-4.8,1c-2.6-0.1-4.7-1.5-6.2-4.1c-1-1.7-1.5-3.5-1.3-5.4V1h3.5
			v12.9h6.4v3h-6.3v11.3c0.4,3.5,1.4,5.7,2.8,6.5c1.6,0.8,3.3,0.7,5-0.2C141.4,35.7,141.8,36.6,142.1,37.3z"/>
		<path id="XMLID_550_" class="st0" d="M166.9,9.6c4.1,0,7.5,1.5,10.3,4.5c2.5,2.7,3.7,6,3.7,9.7c0,3.7-1.3,7-3.9,9.8
			c-2.6,2.8-5.9,4.2-10,4.2c-4.1,0-7.5-1.4-10-4.2c-2.6-2.8-3.9-6.1-3.9-9.8c0-3.7,1.2-6.9,3.7-9.7C159.4,11.1,162.8,9.6,166.9,9.6z
			 M166.9,12.9c-2.8,0-5.3,1.1-7.3,3.2c-2.1,2.1-3.1,4.7-3.1,7.7c0,1.9,0.5,3.7,1.4,5.4c0.9,1.7,2.2,3,3.8,3.9
			c1.6,0.9,3.3,1.4,5.2,1.4c1.9,0,3.7-0.5,5.3-1.4s2.8-2.2,3.8-3.9s1.4-3.5,1.4-5.4c0-3-1-5.5-3.1-7.7
			C172.2,14,169.8,12.9,166.9,12.9z"/>
		<path id="XMLID_548_" class="st0" d="M194.7,25.2v-3.2c0.3-1.6,0.6-2.9,1.1-3.9c1.1-2.8,2.7-4.9,4.6-6.2c1.9-1.3,3.5-2,4.8-2
			c0.9,0,2,0.3,3,0.9l-1.8,2.9c-1.5-0.6-3-0.1-4.5,1.3c-1.5,1.4-2.5,3-3.1,4.7c-0.4,1.5-0.6,4.4-0.6,8.5v9.1h-3.5V25.2z"/>
		<path id="XMLID_546_" class="st0" d="M219.1,10.3h3.6l9.2,20.6l8.9-20.6h3.7l-16,36.5h-3.6l5.2-11.8L219.1,10.3z"/>
	</g>
	<g id="XMLID_528_">
		<path id="XMLID_543_" class="st0" d="M2,1.5h3.7l7.4,26.1L23.4,1.5h0.8l10.3,26.1L42,1.5h3.7L35.3,37.7h-0.7L23.9,10.4l-11,27.4
			h-0.7L2,1.5z"/>
		<path id="XMLID_540_" class="st0" d="M79.2,28.2l2.9,1.5c-0.9,1.9-2,3.4-3.3,4.5c-1.3,1.1-2.7,2-4.2,2.6c-1.6,0.6-3.3,0.9-5.3,0.9
			c-4.4,0-7.8-1.4-10.2-4.3c-2.5-2.9-3.7-6.1-3.7-9.7c0-3.4,1-6.4,3.1-9.1c2.6-3.4,6.2-5.1,10.6-5.1c4.5,0,8.2,1.7,10.9,5.2
			C82,17.3,83,20.3,83,24h-24c0.1,3.1,1.1,5.7,3,7.7c1.9,2,4.3,3,7.1,3c1.4,0,2.7-0.2,4-0.7c1.3-0.5,2.4-1.1,3.3-1.9
			S78.2,30,79.2,28.2z M79.2,21c-0.5-1.8-1.1-3.3-2-4.4s-2-2-3.5-2.7c-1.4-0.7-3-1-4.6-1c-2.6,0-4.9,0.8-6.8,2.5
			C61,16.7,60,18.6,59.3,21H79.2z"/>
		<path id="XMLID_538_" class="st0" d="M94.9,30.6l3.1-1.9c2.2,4,4.7,6,7.5,6c1.2,0,2.4-0.3,3.4-0.9c1.1-0.6,1.9-1.3,2.4-2.3
			c0.6-0.9,0.8-2,0.8-3c0-1.2-0.4-2.4-1.2-3.6c-1.1-1.6-3.2-3.3-6.2-4.9c-3-2.3-4.9-3.9-5.6-5c-1.3-1.7-1.9-3.5-1.9-5.5
			c0-1.6,0.4-3,1.1-4.3C99,4,100.1,3,101.5,2.2c1.4-0.8,2.9-1.1,4.5-1.1c1.7,0,3.3,0.4,4.8,1.3c1.5,0.9,3.1,2.4,4.7,4.7l-3,2.2
			c-1.4-1.8-2.5-3-3.5-3.6c-1-0.6-2-0.9-3.1-0.9c-1.4,0-2.6,0.4-3.6,1.3c-0.9,0.9-1.4,2-1.4,3.3c0,0.8,0.2,1.5,0.5,2.3
			c0.3,0.7,0.9,1.5,1.8,2.4c0.5,0.5,2,1.7,4.7,3.6c3.1,2.3,5.3,4.2,6.4,5.7c1.2,1.5,1.7,3.2,1.7,5c0,2.6-1,4.9-3,6.9
			c-2,1.9-4.4,2.9-7.3,2.9c-2.2,0-4.2-0.6-6-1.8C98,35.3,96.4,33.3,94.9,30.6z"/>
		<path id="XMLID_536_" class="st0" d="M142.1,37.3c-1.8,0.7-3.4,1-4.8,1c-2.6-0.1-4.7-1.5-6.2-4.1c-1-1.7-1.5-3.5-1.3-5.4V1h3.5
			v12.9h6.4v3h-6.3v11.3c0.4,3.5,1.4,5.7,2.8,6.5c1.6,0.8,3.3,0.7,5-0.2C141.4,35.7,141.8,36.6,142.1,37.3z"/>
		<path id="XMLID_533_" class="st0" d="M166.9,9.6c4.1,0,7.5,1.5,10.3,4.5c2.5,2.7,3.7,6,3.7,9.7c0,3.7-1.3,7-3.9,9.8
			c-2.6,2.8-5.9,4.2-10,4.2c-4.1,0-7.5-1.4-10-4.2c-2.6-2.8-3.9-6.1-3.9-9.8c0-3.7,1.2-6.9,3.7-9.7C159.4,11.1,162.8,9.6,166.9,9.6z
			 M166.9,12.9c-2.8,0-5.3,1.1-7.3,3.2c-2.1,2.1-3.1,4.7-3.1,7.7c0,1.9,0.5,3.7,1.4,5.4c0.9,1.7,2.2,3,3.8,3.9
			c1.6,0.9,3.3,1.4,5.2,1.4c1.9,0,3.7-0.5,5.3-1.4s2.8-2.2,3.8-3.9s1.4-3.5,1.4-5.4c0-3-1-5.5-3.1-7.7
			C172.2,14,169.8,12.9,166.9,12.9z"/>
		<path id="XMLID_531_" class="st0" d="M194.7,25.2v-3.2c0.3-1.6,0.6-2.9,1.1-3.9c1.1-2.8,2.7-4.9,4.6-6.2c1.9-1.3,3.5-2,4.8-2
			c0.9,0,2,0.3,3,0.9l-1.8,2.9c-1.5-0.6-3-0.1-4.5,1.3c-1.5,1.4-2.5,3-3.1,4.7c-0.4,1.5-0.6,4.4-0.6,8.5v9.1h-3.5V25.2z"/>
		<path id="XMLID_529_" class="st0" d="M219.1,10.3h3.6l9.2,20.6l8.9-20.6h3.7l-16,36.5h-3.6l5.2-11.8L219.1,10.3z"/>
	</g>
	<g id="XMLID_511_">
		<path id="XMLID_526_" class="st0" d="M2,1.5h3.7l7.4,26.1L23.4,1.5h0.8l10.3,26.1L42,1.5h3.7L35.3,37.7h-0.7L23.9,10.4l-11,27.4
			h-0.7L2,1.5z"/>
		<path id="XMLID_523_" class="st0" d="M79.2,28.2l2.9,1.5c-0.9,1.9-2,3.4-3.3,4.5c-1.3,1.1-2.7,2-4.2,2.6c-1.6,0.6-3.3,0.9-5.3,0.9
			c-4.4,0-7.8-1.4-10.2-4.3c-2.5-2.9-3.7-6.1-3.7-9.7c0-3.4,1-6.4,3.1-9.1c2.6-3.4,6.2-5.1,10.6-5.1c4.5,0,8.2,1.7,10.9,5.2
			C82,17.3,83,20.3,83,24h-24c0.1,3.1,1.1,5.7,3,7.7c1.9,2,4.3,3,7.1,3c1.4,0,2.7-0.2,4-0.7c1.3-0.5,2.4-1.1,3.3-1.9
			S78.2,30,79.2,28.2z M79.2,21c-0.5-1.8-1.1-3.3-2-4.4s-2-2-3.5-2.7c-1.4-0.7-3-1-4.6-1c-2.6,0-4.9,0.8-6.8,2.5
			C61,16.7,60,18.6,59.3,21H79.2z"/>
		<path id="XMLID_521_" class="st0" d="M94.9,30.6l3.1-1.9c2.2,4,4.7,6,7.5,6c1.2,0,2.4-0.3,3.4-0.9c1.1-0.6,1.9-1.3,2.4-2.3
			c0.6-0.9,0.8-2,0.8-3c0-1.2-0.4-2.4-1.2-3.6c-1.1-1.6-3.2-3.3-6.2-4.9c-3-2.3-4.9-3.9-5.6-5c-1.3-1.7-1.9-3.5-1.9-5.5
			c0-1.6,0.4-3,1.1-4.3C99,4,100.1,3,101.5,2.2c1.4-0.8,2.9-1.1,4.5-1.1c1.7,0,3.3,0.4,4.8,1.3c1.5,0.9,3.1,2.4,4.7,4.7l-3,2.2
			c-1.4-1.8-2.5-3-3.5-3.6c-1-0.6-2-0.9-3.1-0.9c-1.4,0-2.6,0.4-3.6,1.3c-0.9,0.9-1.4,2-1.4,3.3c0,0.8,0.2,1.5,0.5,2.3
			c0.3,0.7,0.9,1.5,1.8,2.4c0.5,0.5,2,1.7,4.7,3.6c3.1,2.3,5.3,4.2,6.4,5.7c1.2,1.5,1.7,3.2,1.7,5c0,2.6-1,4.9-3,6.9
			c-2,1.9-4.4,2.9-7.3,2.9c-2.2,0-4.2-0.6-6-1.8C98,35.3,96.4,33.3,94.9,30.6z"/>
		<path id="XMLID_519_" class="st0" d="M142.1,37.3c-1.8,0.7-3.4,1-4.8,1c-2.6-0.1-4.7-1.5-6.2-4.1c-1-1.7-1.5-3.5-1.3-5.4V1h3.5
			v12.9h6.4v3h-6.3v11.3c0.4,3.5,1.4,5.7,2.8,6.5c1.6,0.8,3.3,0.7,5-0.2C141.4,35.7,141.8,36.6,142.1,37.3z"/>
		<path id="XMLID_516_" class="st0" d="M166.9,9.6c4.1,0,7.5,1.5,10.3,4.5c2.5,2.7,3.7,6,3.7,9.7c0,3.7-1.3,7-3.9,9.8
			c-2.6,2.8-5.9,4.2-10,4.2c-4.1,0-7.5-1.4-10-4.2c-2.6-2.8-3.9-6.1-3.9-9.8c0-3.7,1.2-6.9,3.7-9.7C159.4,11.1,162.8,9.6,166.9,9.6z
			 M166.9,12.9c-2.8,0-5.3,1.1-7.3,3.2c-2.1,2.1-3.1,4.7-3.1,7.7c0,1.9,0.5,3.7,1.4,5.4c0.9,1.7,2.2,3,3.8,3.9
			c1.6,0.9,3.3,1.4,5.2,1.4c1.9,0,3.7-0.5,5.3-1.4s2.8-2.2,3.8-3.9s1.4-3.5,1.4-5.4c0-3-1-5.5-3.1-7.7
			C172.2,14,169.8,12.9,166.9,12.9z"/>
		<path id="XMLID_514_" class="st0" d="M194.7,25.2v-3.2c0.3-1.6,0.6-2.9,1.1-3.9c1.1-2.8,2.7-4.9,4.6-6.2c1.9-1.3,3.5-2,4.8-2
			c0.9,0,2,0.3,3,0.9l-1.8,2.9c-1.5-0.6-3-0.1-4.5,1.3c-1.5,1.4-2.5,3-3.1,4.7c-0.4,1.5-0.6,4.4-0.6,8.5v9.1h-3.5V25.2z"/>
		<path id="XMLID_512_" class="st0" d="M219.1,10.3h3.6l9.2,20.6l8.9-20.6h3.7l-16,36.5h-3.6l5.2-11.8L219.1,10.3z"/>
	</g>
	<g id="XMLID_494_">
		<path id="XMLID_509_" class="st0" d="M2,1.5h3.7l7.4,26.1L23.4,1.5h0.8l10.3,26.1L42,1.5h3.7L35.3,37.7h-0.7L23.9,10.4l-11,27.4
			h-0.7L2,1.5z"/>
		<path id="XMLID_506_" class="st0" d="M79.2,28.2l2.9,1.5c-0.9,1.9-2,3.4-3.3,4.5c-1.3,1.1-2.7,2-4.2,2.6c-1.6,0.6-3.3,0.9-5.3,0.9
			c-4.4,0-7.8-1.4-10.2-4.3c-2.5-2.9-3.7-6.1-3.7-9.7c0-3.4,1-6.4,3.1-9.1c2.6-3.4,6.2-5.1,10.6-5.1c4.5,0,8.2,1.7,10.9,5.2
			C82,17.3,83,20.3,83,24h-24c0.1,3.1,1.1,5.7,3,7.7c1.9,2,4.3,3,7.1,3c1.4,0,2.7-0.2,4-0.7c1.3-0.5,2.4-1.1,3.3-1.9
			S78.2,30,79.2,28.2z M79.2,21c-0.5-1.8-1.1-3.3-2-4.4s-2-2-3.5-2.7c-1.4-0.7-3-1-4.6-1c-2.6,0-4.9,0.8-6.8,2.5
			C61,16.7,60,18.6,59.3,21H79.2z"/>
		<path id="XMLID_504_" class="st0" d="M94.9,30.6l3.1-1.9c2.2,4,4.7,6,7.5,6c1.2,0,2.4-0.3,3.4-0.9c1.1-0.6,1.9-1.3,2.4-2.3
			c0.6-0.9,0.8-2,0.8-3c0-1.2-0.4-2.4-1.2-3.6c-1.1-1.6-3.2-3.3-6.2-4.9c-3-2.3-4.9-3.9-5.6-5c-1.3-1.7-1.9-3.5-1.9-5.5
			c0-1.6,0.4-3,1.1-4.3C99,4,100.1,3,101.5,2.2c1.4-0.8,2.9-1.1,4.5-1.1c1.7,0,3.3,0.4,4.8,1.3c1.5,0.9,3.1,2.4,4.7,4.7l-3,2.2
			c-1.4-1.8-2.5-3-3.5-3.6c-1-0.6-2-0.9-3.1-0.9c-1.4,0-2.6,0.4-3.6,1.3c-0.9,0.9-1.4,2-1.4,3.3c0,0.8,0.2,1.5,0.5,2.3
			c0.3,0.7,0.9,1.5,1.8,2.4c0.5,0.5,2,1.7,4.7,3.6c3.1,2.3,5.3,4.2,6.4,5.7c1.2,1.5,1.7,3.2,1.7,5c0,2.6-1,4.9-3,6.9
			c-2,1.9-4.4,2.9-7.3,2.9c-2.2,0-4.2-0.6-6-1.8C98,35.3,96.4,33.3,94.9,30.6z"/>
		<path id="XMLID_502_" class="st0" d="M142.1,37.3c-1.8,0.7-3.4,1-4.8,1c-2.6-0.1-4.7-1.5-6.2-4.1c-1-1.7-1.5-3.5-1.3-5.4V1h3.5
			v12.9h6.4v3h-6.3v11.3c0.4,3.5,1.4,5.7,2.8,6.5c1.6,0.8,3.3,0.7,5-0.2C141.4,35.7,141.8,36.6,142.1,37.3z"/>
		<path id="XMLID_499_" class="st0" d="M166.9,9.6c4.1,0,7.5,1.5,10.3,4.5c2.5,2.7,3.7,6,3.7,9.7c0,3.7-1.3,7-3.9,9.8
			c-2.6,2.8-5.9,4.2-10,4.2c-4.1,0-7.5-1.4-10-4.2c-2.6-2.8-3.9-6.1-3.9-9.8c0-3.7,1.2-6.9,3.7-9.7C159.4,11.1,162.8,9.6,166.9,9.6z
			 M166.9,12.9c-2.8,0-5.3,1.1-7.3,3.2c-2.1,2.1-3.1,4.7-3.1,7.7c0,1.9,0.5,3.7,1.4,5.4c0.9,1.7,2.2,3,3.8,3.9
			c1.6,0.9,3.3,1.4,5.2,1.4c1.9,0,3.7-0.5,5.3-1.4s2.8-2.2,3.8-3.9s1.4-3.5,1.4-5.4c0-3-1-5.5-3.1-7.7
			C172.2,14,169.8,12.9,166.9,12.9z"/>
		<path id="XMLID_497_" class="st0" d="M194.7,25.2v-3.2c0.3-1.6,0.6-2.9,1.1-3.9c1.1-2.8,2.7-4.9,4.6-6.2c1.9-1.3,3.5-2,4.8-2
			c0.9,0,2,0.3,3,0.9l-1.8,2.9c-1.5-0.6-3-0.1-4.5,1.3c-1.5,1.4-2.5,3-3.1,4.7c-0.4,1.5-0.6,4.4-0.6,8.5v9.1h-3.5V25.2z"/>
		<path id="XMLID_495_" class="st0" d="M219.1,10.3h3.6l9.2,20.6l8.9-20.6h3.7l-16,36.5h-3.6l5.2-11.8L219.1,10.3z"/>
	</g>
	<g id="XMLID_477_">
		<path id="XMLID_492_" class="st0" d="M2,1.5h3.7l7.4,26.1L23.4,1.5h0.8l10.3,26.1L42,1.5h3.7L35.3,37.7h-0.7L23.9,10.4l-11,27.4
			h-0.7L2,1.5z"/>
		<path id="XMLID_489_" class="st0" d="M79.2,28.2l2.9,1.5c-0.9,1.9-2,3.4-3.3,4.5c-1.3,1.1-2.7,2-4.2,2.6c-1.6,0.6-3.3,0.9-5.3,0.9
			c-4.4,0-7.8-1.4-10.2-4.3c-2.5-2.9-3.7-6.1-3.7-9.7c0-3.4,1-6.4,3.1-9.1c2.6-3.4,6.2-5.1,10.6-5.1c4.5,0,8.2,1.7,10.9,5.2
			C82,17.3,83,20.3,83,24h-24c0.1,3.1,1.1,5.7,3,7.7c1.9,2,4.3,3,7.1,3c1.4,0,2.7-0.2,4-0.7c1.3-0.5,2.4-1.1,3.3-1.9
			S78.2,30,79.2,28.2z M79.2,21c-0.5-1.8-1.1-3.3-2-4.4s-2-2-3.5-2.7c-1.4-0.7-3-1-4.6-1c-2.6,0-4.9,0.8-6.8,2.5
			C61,16.7,60,18.6,59.3,21H79.2z"/>
		<path id="XMLID_487_" class="st0" d="M94.9,30.6l3.1-1.9c2.2,4,4.7,6,7.5,6c1.2,0,2.4-0.3,3.4-0.9c1.1-0.6,1.9-1.3,2.4-2.3
			c0.6-0.9,0.8-2,0.8-3c0-1.2-0.4-2.4-1.2-3.6c-1.1-1.6-3.2-3.3-6.2-4.9c-3-2.3-4.9-3.9-5.6-5c-1.3-1.7-1.9-3.5-1.9-5.5
			c0-1.6,0.4-3,1.1-4.3C99,4,100.1,3,101.5,2.2c1.4-0.8,2.9-1.1,4.5-1.1c1.7,0,3.3,0.4,4.8,1.3c1.5,0.9,3.1,2.4,4.7,4.7l-3,2.2
			c-1.4-1.8-2.5-3-3.5-3.6c-1-0.6-2-0.9-3.1-0.9c-1.4,0-2.6,0.4-3.6,1.3c-0.9,0.9-1.4,2-1.4,3.3c0,0.8,0.2,1.5,0.5,2.3
			c0.3,0.7,0.9,1.5,1.8,2.4c0.5,0.5,2,1.7,4.7,3.6c3.1,2.3,5.3,4.2,6.4,5.7c1.2,1.5,1.7,3.2,1.7,5c0,2.6-1,4.9-3,6.9
			c-2,1.9-4.4,2.9-7.3,2.9c-2.2,0-4.2-0.6-6-1.8C98,35.3,96.4,33.3,94.9,30.6z"/>
		<path id="XMLID_485_" class="st0" d="M142.1,37.3c-1.8,0.7-3.4,1-4.8,1c-2.6-0.1-4.7-1.5-6.2-4.1c-1-1.7-1.5-3.5-1.3-5.4V1h3.5
			v12.9h6.4v3h-6.3v11.3c0.4,3.5,1.4,5.7,2.8,6.5c1.6,0.8,3.3,0.7,5-0.2C141.4,35.7,141.8,36.6,142.1,37.3z"/>
		<path id="XMLID_482_" class="st0" d="M166.9,9.6c4.1,0,7.5,1.5,10.3,4.5c2.5,2.7,3.7,6,3.7,9.7c0,3.7-1.3,7-3.9,9.8
			c-2.6,2.8-5.9,4.2-10,4.2c-4.1,0-7.5-1.4-10-4.2c-2.6-2.8-3.9-6.1-3.9-9.8c0-3.7,1.2-6.9,3.7-9.7C159.4,11.1,162.8,9.6,166.9,9.6z
			 M166.9,12.9c-2.8,0-5.3,1.1-7.3,3.2c-2.1,2.1-3.1,4.7-3.1,7.7c0,1.9,0.5,3.7,1.4,5.4c0.9,1.7,2.2,3,3.8,3.9
			c1.6,0.9,3.3,1.4,5.2,1.4c1.9,0,3.7-0.5,5.3-1.4s2.8-2.2,3.8-3.9s1.4-3.5,1.4-5.4c0-3-1-5.5-3.1-7.7
			C172.2,14,169.8,12.9,166.9,12.9z"/>
		<path id="XMLID_480_" class="st0" d="M194.7,25.2v-3.2c0.3-1.6,0.6-2.9,1.1-3.9c1.1-2.8,2.7-4.9,4.6-6.2c1.9-1.3,3.5-2,4.8-2
			c0.9,0,2,0.3,3,0.9l-1.8,2.9c-1.5-0.6-3-0.1-4.5,1.3c-1.5,1.4-2.5,3-3.1,4.7c-0.4,1.5-0.6,4.4-0.6,8.5v9.1h-3.5V25.2z"/>
		<path id="XMLID_478_" class="st0" d="M219.1,10.3h3.6l9.2,20.6l8.9-20.6h3.7l-16,36.5h-3.6l5.2-11.8L219.1,10.3z"/>
	</g>
	<g id="XMLID_460_">
		<path id="XMLID_475_" class="st0" d="M2,1.5h3.7l7.4,26.1L23.4,1.5h0.8l10.3,26.1L42,1.5h3.7L35.3,37.7h-0.7L23.9,10.4l-11,27.4
			h-0.7L2,1.5z"/>
		<path id="XMLID_472_" class="st0" d="M79.2,28.2l2.9,1.5c-0.9,1.9-2,3.4-3.3,4.5c-1.3,1.1-2.7,2-4.2,2.6c-1.6,0.6-3.3,0.9-5.3,0.9
			c-4.4,0-7.8-1.4-10.2-4.3c-2.5-2.9-3.7-6.1-3.7-9.7c0-3.4,1-6.4,3.1-9.1c2.6-3.4,6.2-5.1,10.6-5.1c4.5,0,8.2,1.7,10.9,5.2
			C82,17.3,83,20.3,83,24h-24c0.1,3.1,1.1,5.7,3,7.7c1.9,2,4.3,3,7.1,3c1.4,0,2.7-0.2,4-0.7c1.3-0.5,2.4-1.1,3.3-1.9
			S78.2,30,79.2,28.2z M79.2,21c-0.5-1.8-1.1-3.3-2-4.4s-2-2-3.5-2.7c-1.4-0.7-3-1-4.6-1c-2.6,0-4.9,0.8-6.8,2.5
			C61,16.7,60,18.6,59.3,21H79.2z"/>
		<path id="XMLID_470_" class="st0" d="M94.9,30.6l3.1-1.9c2.2,4,4.7,6,7.5,6c1.2,0,2.4-0.3,3.4-0.9c1.1-0.6,1.9-1.3,2.4-2.3
			c0.6-0.9,0.8-2,0.8-3c0-1.2-0.4-2.4-1.2-3.6c-1.1-1.6-3.2-3.3-6.2-4.9c-3-2.3-4.9-3.9-5.6-5c-1.3-1.7-1.9-3.5-1.9-5.5
			c0-1.6,0.4-3,1.1-4.3C99,4,100.1,3,101.5,2.2c1.4-0.8,2.9-1.1,4.5-1.1c1.7,0,3.3,0.4,4.8,1.3c1.5,0.9,3.1,2.4,4.7,4.7l-3,2.2
			c-1.4-1.8-2.5-3-3.5-3.6c-1-0.6-2-0.9-3.1-0.9c-1.4,0-2.6,0.4-3.6,1.3c-0.9,0.9-1.4,2-1.4,3.3c0,0.8,0.2,1.5,0.5,2.3
			c0.3,0.7,0.9,1.5,1.8,2.4c0.5,0.5,2,1.7,4.7,3.6c3.1,2.3,5.3,4.2,6.4,5.7c1.2,1.5,1.7,3.2,1.7,5c0,2.6-1,4.9-3,6.9
			c-2,1.9-4.4,2.9-7.3,2.9c-2.2,0-4.2-0.6-6-1.8C98,35.3,96.4,33.3,94.9,30.6z"/>
		<path id="XMLID_468_" class="st0" d="M142.1,37.3c-1.8,0.7-3.4,1-4.8,1c-2.6-0.1-4.7-1.5-6.2-4.1c-1-1.7-1.5-3.5-1.3-5.4V1h3.5
			v12.9h6.4v3h-6.3v11.3c0.4,3.5,1.4,5.7,2.8,6.5c1.6,0.8,3.3,0.7,5-0.2C141.4,35.7,141.8,36.6,142.1,37.3z"/>
		<path id="XMLID_465_" class="st0" d="M166.9,9.6c4.1,0,7.5,1.5,10.3,4.5c2.5,2.7,3.7,6,3.7,9.7c0,3.7-1.3,7-3.9,9.8
			c-2.6,2.8-5.9,4.2-10,4.2c-4.1,0-7.5-1.4-10-4.2c-2.6-2.8-3.9-6.1-3.9-9.8c0-3.7,1.2-6.9,3.7-9.7C159.4,11.1,162.8,9.6,166.9,9.6z
			 M166.9,12.9c-2.8,0-5.3,1.1-7.3,3.2c-2.1,2.1-3.1,4.7-3.1,7.7c0,1.9,0.5,3.7,1.4,5.4c0.9,1.7,2.2,3,3.8,3.9
			c1.6,0.9,3.3,1.4,5.2,1.4c1.9,0,3.7-0.5,5.3-1.4s2.8-2.2,3.8-3.9s1.4-3.5,1.4-5.4c0-3-1-5.5-3.1-7.7
			C172.2,14,169.8,12.9,166.9,12.9z"/>
		<path id="XMLID_463_" class="st0" d="M194.7,25.2v-3.2c0.3-1.6,0.6-2.9,1.1-3.9c1.1-2.8,2.7-4.9,4.6-6.2c1.9-1.3,3.5-2,4.8-2
			c0.9,0,2,0.3,3,0.9l-1.8,2.9c-1.5-0.6-3-0.1-4.5,1.3c-1.5,1.4-2.5,3-3.1,4.7c-0.4,1.5-0.6,4.4-0.6,8.5v9.1h-3.5V25.2z"/>
		<path id="XMLID_461_" class="st0" d="M219.1,10.3h3.6l9.2,20.6l8.9-20.6h3.7l-16,36.5h-3.6l5.2-11.8L219.1,10.3z"/>
	</g>
	<g id="XMLID_443_">
		<path id="XMLID_458_" class="st0" d="M2,1.5h3.7l7.4,26.1L23.4,1.5h0.8l10.3,26.1L42,1.5h3.7L35.3,37.7h-0.7L23.9,10.4l-11,27.4
			h-0.7L2,1.5z"/>
		<path id="XMLID_455_" class="st0" d="M79.2,28.2l2.9,1.5c-0.9,1.9-2,3.4-3.3,4.5c-1.3,1.1-2.7,2-4.2,2.6c-1.6,0.6-3.3,0.9-5.3,0.9
			c-4.4,0-7.8-1.4-10.2-4.3c-2.5-2.9-3.7-6.1-3.7-9.7c0-3.4,1-6.4,3.1-9.1c2.6-3.4,6.2-5.1,10.6-5.1c4.5,0,8.2,1.7,10.9,5.2
			C82,17.3,83,20.3,83,24h-24c0.1,3.1,1.1,5.7,3,7.7c1.9,2,4.3,3,7.1,3c1.4,0,2.7-0.2,4-0.7c1.3-0.5,2.4-1.1,3.3-1.9
			S78.2,30,79.2,28.2z M79.2,21c-0.5-1.8-1.1-3.3-2-4.4s-2-2-3.5-2.7c-1.4-0.7-3-1-4.6-1c-2.6,0-4.9,0.8-6.8,2.5
			C61,16.7,60,18.6,59.3,21H79.2z"/>
		<path id="XMLID_453_" class="st0" d="M94.9,30.6l3.1-1.9c2.2,4,4.7,6,7.5,6c1.2,0,2.4-0.3,3.4-0.9c1.1-0.6,1.9-1.3,2.4-2.3
			c0.6-0.9,0.8-2,0.8-3c0-1.2-0.4-2.4-1.2-3.6c-1.1-1.6-3.2-3.3-6.2-4.9c-3-2.3-4.9-3.9-5.6-5c-1.3-1.7-1.9-3.5-1.9-5.5
			c0-1.6,0.4-3,1.1-4.3C99,4,100.1,3,101.5,2.2c1.4-0.8,2.9-1.1,4.5-1.1c1.7,0,3.3,0.4,4.8,1.3c1.5,0.9,3.1,2.4,4.7,4.7l-3,2.2
			c-1.4-1.8-2.5-3-3.5-3.6c-1-0.6-2-0.9-3.1-0.9c-1.4,0-2.6,0.4-3.6,1.3c-0.9,0.9-1.4,2-1.4,3.3c0,0.8,0.2,1.5,0.5,2.3
			c0.3,0.7,0.9,1.5,1.8,2.4c0.5,0.5,2,1.7,4.7,3.6c3.1,2.3,5.3,4.2,6.4,5.7c1.2,1.5,1.7,3.2,1.7,5c0,2.6-1,4.9-3,6.9
			c-2,1.9-4.4,2.9-7.3,2.9c-2.2,0-4.2-0.6-6-1.8C98,35.3,96.4,33.3,94.9,30.6z"/>
		<path id="XMLID_451_" class="st0" d="M142.1,37.3c-1.8,0.7-3.4,1-4.8,1c-2.6-0.1-4.7-1.5-6.2-4.1c-1-1.7-1.5-3.5-1.3-5.4V1h3.5
			v12.9h6.4v3h-6.3v11.3c0.4,3.5,1.4,5.7,2.8,6.5c1.6,0.8,3.3,0.7,5-0.2C141.4,35.7,141.8,36.6,142.1,37.3z"/>
		<path id="XMLID_448_" class="st0" d="M166.9,9.6c4.1,0,7.5,1.5,10.3,4.5c2.5,2.7,3.7,6,3.7,9.7c0,3.7-1.3,7-3.9,9.8
			c-2.6,2.8-5.9,4.2-10,4.2c-4.1,0-7.5-1.4-10-4.2c-2.6-2.8-3.9-6.1-3.9-9.8c0-3.7,1.2-6.9,3.7-9.7C159.4,11.1,162.8,9.6,166.9,9.6z
			 M166.9,12.9c-2.8,0-5.3,1.1-7.3,3.2c-2.1,2.1-3.1,4.7-3.1,7.7c0,1.9,0.5,3.7,1.4,5.4c0.9,1.7,2.2,3,3.8,3.9
			c1.6,0.9,3.3,1.4,5.2,1.4c1.9,0,3.7-0.5,5.3-1.4s2.8-2.2,3.8-3.9s1.4-3.5,1.4-5.4c0-3-1-5.5-3.1-7.7
			C172.2,14,169.8,12.9,166.9,12.9z"/>
		<path id="XMLID_446_" class="st0" d="M194.7,25.2v-3.2c0.3-1.6,0.6-2.9,1.1-3.9c1.1-2.8,2.7-4.9,4.6-6.2c1.9-1.3,3.5-2,4.8-2
			c0.9,0,2,0.3,3,0.9l-1.8,2.9c-1.5-0.6-3-0.1-4.5,1.3c-1.5,1.4-2.5,3-3.1,4.7c-0.4,1.5-0.6,4.4-0.6,8.5v9.1h-3.5V25.2z"/>
		<path id="XMLID_444_" class="st0" d="M219.1,10.3h3.6l9.2,20.6l8.9-20.6h3.7l-16,36.5h-3.6l5.2-11.8L219.1,10.3z"/>
	</g>
	<g id="XMLID_426_">
		
			<linearGradient id="XMLID_110_" gradientUnits="userSpaceOnUse" x1="0" y1="25.3142" x2="242.5341" y2="25.3142" gradientTransform="matrix(1 0 0 1 2 -1.4004)">
			<stop  offset="0" style="stop-color:#8073FA"/>
			<stop  offset="0.2849" style="stop-color:#777AFB"/>
			<stop  offset="0.757" style="stop-color:#5D8DFD"/>
			<stop  offset="0.9944" style="stop-color:#4E98FE"/>
		</linearGradient>
		<path id="XMLID_441_" class="st1" d="M2,1.5h3.7l7.4,26.1L23.4,1.5h0.8l10.3,26.1L42,1.5h3.7L35.3,37.7h-0.7L23.9,10.4l-11,27.4
			h-0.7L2,1.5z"/>
		
			<linearGradient id="XMLID_111_" gradientUnits="userSpaceOnUse" x1="0" y1="25.3142" x2="242.5341" y2="25.3142" gradientTransform="matrix(1 0 0 1 2 -1.4004)">
			<stop  offset="0" style="stop-color:#8073FA"/>
			<stop  offset="0.2849" style="stop-color:#777AFB"/>
			<stop  offset="0.757" style="stop-color:#5D8DFD"/>
			<stop  offset="0.9944" style="stop-color:#4E98FE"/>
		</linearGradient>
		<path id="XMLID_438_" class="st2" d="M79.2,28.2l2.9,1.5c-0.9,1.9-2,3.4-3.3,4.5c-1.3,1.1-2.7,2-4.2,2.6c-1.6,0.6-3.3,0.9-5.3,0.9
			c-4.4,0-7.8-1.4-10.2-4.3c-2.5-2.9-3.7-6.1-3.7-9.7c0-3.4,1-6.4,3.1-9.1c2.6-3.4,6.2-5.1,10.6-5.1c4.5,0,8.2,1.7,10.9,5.2
			C82,17.3,83,20.3,83,24h-24c0.1,3.1,1.1,5.7,3,7.7c1.9,2,4.3,3,7.1,3c1.4,0,2.7-0.2,4-0.7c1.3-0.5,2.4-1.1,3.3-1.9
			S78.2,30,79.2,28.2z M79.2,21c-0.5-1.8-1.1-3.3-2-4.4s-2-2-3.5-2.7c-1.4-0.7-3-1-4.6-1c-2.6,0-4.9,0.8-6.8,2.5
			C61,16.7,60,18.6,59.3,21H79.2z"/>
		
			<linearGradient id="XMLID_112_" gradientUnits="userSpaceOnUse" x1="0" y1="25.3142" x2="242.5341" y2="25.3142" gradientTransform="matrix(1 0 0 1 2 -1.4004)">
			<stop  offset="0" style="stop-color:#8073FA"/>
			<stop  offset="0.2849" style="stop-color:#777AFB"/>
			<stop  offset="0.757" style="stop-color:#5D8DFD"/>
			<stop  offset="0.9944" style="stop-color:#4E98FE"/>
		</linearGradient>
		<path id="XMLID_436_" class="st3" d="M94.9,30.6l3.1-1.9c2.2,4,4.7,6,7.5,6c1.2,0,2.4-0.3,3.4-0.9c1.1-0.6,1.9-1.3,2.4-2.3
			c0.6-0.9,0.8-2,0.8-3c0-1.2-0.4-2.4-1.2-3.6c-1.1-1.6-3.2-3.3-6.2-4.9c-3-2.3-4.9-3.9-5.6-5c-1.3-1.7-1.9-3.5-1.9-5.5
			c0-1.6,0.4-3,1.1-4.3C99,4,100.1,3,101.5,2.2c1.4-0.8,2.9-1.1,4.5-1.1c1.7,0,3.3,0.4,4.8,1.3c1.5,0.9,3.1,2.4,4.7,4.7l-3,2.2
			c-1.4-1.8-2.5-3-3.5-3.6c-1-0.6-2-0.9-3.1-0.9c-1.4,0-2.6,0.4-3.6,1.3c-0.9,0.9-1.4,2-1.4,3.3c0,0.8,0.2,1.5,0.5,2.3
			c0.3,0.7,0.9,1.5,1.8,2.4c0.5,0.5,2,1.7,4.7,3.6c3.1,2.3,5.3,4.2,6.4,5.7c1.2,1.5,1.7,3.2,1.7,5c0,2.6-1,4.9-3,6.9
			c-2,1.9-4.4,2.9-7.3,2.9c-2.2,0-4.2-0.6-6-1.8C98,35.3,96.4,33.3,94.9,30.6z"/>
		
			<linearGradient id="XMLID_113_" gradientUnits="userSpaceOnUse" x1="0" y1="25.3142" x2="242.5341" y2="25.3142" gradientTransform="matrix(1 0 0 1 2 -1.4004)">
			<stop  offset="0" style="stop-color:#8073FA"/>
			<stop  offset="0.2849" style="stop-color:#777AFB"/>
			<stop  offset="0.757" style="stop-color:#5D8DFD"/>
			<stop  offset="0.9944" style="stop-color:#4E98FE"/>
		</linearGradient>
		<path id="XMLID_434_" class="st4" d="M142.1,37.3c-1.8,0.7-3.4,1-4.8,1c-2.6-0.1-4.7-1.5-6.2-4.1c-1-1.7-1.5-3.5-1.3-5.4V1h3.5
			v12.9h6.4v3h-6.3v11.3c0.4,3.5,1.4,5.7,2.8,6.5c1.6,0.8,3.3,0.7,5-0.2C141.4,35.7,141.8,36.6,142.1,37.3z"/>
		
			<linearGradient id="XMLID_114_" gradientUnits="userSpaceOnUse" x1="0" y1="25.3142" x2="242.5341" y2="25.3142" gradientTransform="matrix(1 0 0 1 2 -1.4004)">
			<stop  offset="0" style="stop-color:#8073FA"/>
			<stop  offset="0.2849" style="stop-color:#777AFB"/>
			<stop  offset="0.757" style="stop-color:#5D8DFD"/>
			<stop  offset="0.9944" style="stop-color:#4E98FE"/>
		</linearGradient>
		<path id="XMLID_431_" class="st5" d="M166.9,9.6c4.1,0,7.5,1.5,10.3,4.5c2.5,2.7,3.7,6,3.7,9.7c0,3.7-1.3,7-3.9,9.8
			c-2.6,2.8-5.9,4.2-10,4.2c-4.1,0-7.5-1.4-10-4.2c-2.6-2.8-3.9-6.1-3.9-9.8c0-3.7,1.2-6.9,3.7-9.7C159.4,11.1,162.8,9.6,166.9,9.6z
			 M166.9,12.9c-2.8,0-5.3,1.1-7.3,3.2c-2.1,2.1-3.1,4.7-3.1,7.7c0,1.9,0.5,3.7,1.4,5.4c0.9,1.7,2.2,3,3.8,3.9
			c1.6,0.9,3.3,1.4,5.2,1.4c1.9,0,3.7-0.5,5.3-1.4s2.8-2.2,3.8-3.9s1.4-3.5,1.4-5.4c0-3-1-5.5-3.1-7.7
			C172.2,14,169.8,12.9,166.9,12.9z"/>
		
			<linearGradient id="XMLID_115_" gradientUnits="userSpaceOnUse" x1="0" y1="25.3142" x2="242.5341" y2="25.3142" gradientTransform="matrix(1 0 0 1 2 -1.4004)">
			<stop  offset="0" style="stop-color:#8073FA"/>
			<stop  offset="0.2849" style="stop-color:#777AFB"/>
			<stop  offset="0.757" style="stop-color:#5D8DFD"/>
			<stop  offset="0.9944" style="stop-color:#4E98FE"/>
		</linearGradient>
		<path id="XMLID_429_" class="st6" d="M194.7,25.2v-3.2c0.3-1.6,0.6-2.9,1.1-3.9c1.1-2.8,2.7-4.9,4.6-6.2c1.9-1.3,3.5-2,4.8-2
			c0.9,0,2,0.3,3,0.9l-1.8,2.9c-1.5-0.6-3-0.1-4.5,1.3c-1.5,1.4-2.5,3-3.1,4.7c-0.4,1.5-0.6,4.4-0.6,8.5v9.1h-3.5V25.2z"/>
		
			<linearGradient id="XMLID_116_" gradientUnits="userSpaceOnUse" x1="0" y1="25.3142" x2="242.5341" y2="25.3142" gradientTransform="matrix(1 0 0 1 2 -1.4004)">
			<stop  offset="0" style="stop-color:#8073FA"/>
			<stop  offset="0.2849" style="stop-color:#777AFB"/>
			<stop  offset="0.757" style="stop-color:#5D8DFD"/>
			<stop  offset="0.9944" style="stop-color:#4E98FE"/>
		</linearGradient>
		<path id="XMLID_427_" class="st7" d="M219.1,10.3h3.6l9.2,20.6l8.9-20.6h3.7l-16,36.5h-3.6l5.2-11.8L219.1,10.3z"/>
	</g>
	<g id="XMLID_409_">
		
			<linearGradient id="XMLID_117_" gradientUnits="userSpaceOnUse" x1="0" y1="25.3142" x2="242.5341" y2="25.3142" gradientTransform="matrix(1 0 0 1 2 -1.4004)">
			<stop  offset="0" style="stop-color:#8073FA"/>
			<stop  offset="0.2849" style="stop-color:#777AFB"/>
			<stop  offset="0.757" style="stop-color:#5D8DFD"/>
			<stop  offset="0.9944" style="stop-color:#4E98FE"/>
		</linearGradient>
		<path id="XMLID_424_" class="st8" d="M2,1.5h3.7l7.4,26.1L23.4,1.5h0.8l10.3,26.1L42,1.5h3.7L35.3,37.7h-0.7L23.9,10.4l-11,27.4
			h-0.7L2,1.5z"/>
		
			<linearGradient id="XMLID_118_" gradientUnits="userSpaceOnUse" x1="0" y1="25.3142" x2="242.5341" y2="25.3142" gradientTransform="matrix(1 0 0 1 2 -1.4004)">
			<stop  offset="0" style="stop-color:#8073FA"/>
			<stop  offset="0.2849" style="stop-color:#777AFB"/>
			<stop  offset="0.757" style="stop-color:#5D8DFD"/>
			<stop  offset="0.9944" style="stop-color:#4E98FE"/>
		</linearGradient>
		<path id="XMLID_421_" class="st9" d="M79.2,28.2l2.9,1.5c-0.9,1.9-2,3.4-3.3,4.5c-1.3,1.1-2.7,2-4.2,2.6c-1.6,0.6-3.3,0.9-5.3,0.9
			c-4.4,0-7.8-1.4-10.2-4.3c-2.5-2.9-3.7-6.1-3.7-9.7c0-3.4,1-6.4,3.1-9.1c2.6-3.4,6.2-5.1,10.6-5.1c4.5,0,8.2,1.7,10.9,5.2
			C82,17.3,83,20.3,83,24h-24c0.1,3.1,1.1,5.7,3,7.7c1.9,2,4.3,3,7.1,3c1.4,0,2.7-0.2,4-0.7c1.3-0.5,2.4-1.1,3.3-1.9
			S78.2,30,79.2,28.2z M79.2,21c-0.5-1.8-1.1-3.3-2-4.4s-2-2-3.5-2.7c-1.4-0.7-3-1-4.6-1c-2.6,0-4.9,0.8-6.8,2.5
			C61,16.7,60,18.6,59.3,21H79.2z"/>
		
			<linearGradient id="XMLID_119_" gradientUnits="userSpaceOnUse" x1="0" y1="25.3142" x2="242.5341" y2="25.3142" gradientTransform="matrix(1 0 0 1 2 -1.4004)">
			<stop  offset="0" style="stop-color:#8073FA"/>
			<stop  offset="0.2849" style="stop-color:#777AFB"/>
			<stop  offset="0.757" style="stop-color:#5D8DFD"/>
			<stop  offset="0.9944" style="stop-color:#4E98FE"/>
		</linearGradient>
		<path id="XMLID_419_" class="st10" d="M94.9,30.6l3.1-1.9c2.2,4,4.7,6,7.5,6c1.2,0,2.4-0.3,3.4-0.9c1.1-0.6,1.9-1.3,2.4-2.3
			c0.6-0.9,0.8-2,0.8-3c0-1.2-0.4-2.4-1.2-3.6c-1.1-1.6-3.2-3.3-6.2-4.9c-3-2.3-4.9-3.9-5.6-5c-1.3-1.7-1.9-3.5-1.9-5.5
			c0-1.6,0.4-3,1.1-4.3C99,4,100.1,3,101.5,2.2c1.4-0.8,2.9-1.1,4.5-1.1c1.7,0,3.3,0.4,4.8,1.3c1.5,0.9,3.1,2.4,4.7,4.7l-3,2.2
			c-1.4-1.8-2.5-3-3.5-3.6c-1-0.6-2-0.9-3.1-0.9c-1.4,0-2.6,0.4-3.6,1.3c-0.9,0.9-1.4,2-1.4,3.3c0,0.8,0.2,1.5,0.5,2.3
			c0.3,0.7,0.9,1.5,1.8,2.4c0.5,0.5,2,1.7,4.7,3.6c3.1,2.3,5.3,4.2,6.4,5.7c1.2,1.5,1.7,3.2,1.7,5c0,2.6-1,4.9-3,6.9
			c-2,1.9-4.4,2.9-7.3,2.9c-2.2,0-4.2-0.6-6-1.8C98,35.3,96.4,33.3,94.9,30.6z"/>
		
			<linearGradient id="XMLID_120_" gradientUnits="userSpaceOnUse" x1="0" y1="25.3142" x2="242.5341" y2="25.3142" gradientTransform="matrix(1 0 0 1 2 -1.4004)">
			<stop  offset="0" style="stop-color:#8073FA"/>
			<stop  offset="0.2849" style="stop-color:#777AFB"/>
			<stop  offset="0.757" style="stop-color:#5D8DFD"/>
			<stop  offset="0.9944" style="stop-color:#4E98FE"/>
		</linearGradient>
		<path id="XMLID_417_" class="st11" d="M142.1,37.3c-1.8,0.7-3.4,1-4.8,1c-2.6-0.1-4.7-1.5-6.2-4.1c-1-1.7-1.5-3.5-1.3-5.4V1h3.5
			v12.9h6.4v3h-6.3v11.3c0.4,3.5,1.4,5.7,2.8,6.5c1.6,0.8,3.3,0.7,5-0.2C141.4,35.7,141.8,36.6,142.1,37.3z"/>
		
			<linearGradient id="XMLID_121_" gradientUnits="userSpaceOnUse" x1="0" y1="25.3142" x2="242.5341" y2="25.3142" gradientTransform="matrix(1 0 0 1 2 -1.4004)">
			<stop  offset="0" style="stop-color:#8073FA"/>
			<stop  offset="0.2849" style="stop-color:#777AFB"/>
			<stop  offset="0.757" style="stop-color:#5D8DFD"/>
			<stop  offset="0.9944" style="stop-color:#4E98FE"/>
		</linearGradient>
		<path id="XMLID_414_" class="st12" d="M166.9,9.6c4.1,0,7.5,1.5,10.3,4.5c2.5,2.7,3.7,6,3.7,9.7c0,3.7-1.3,7-3.9,9.8
			c-2.6,2.8-5.9,4.2-10,4.2c-4.1,0-7.5-1.4-10-4.2c-2.6-2.8-3.9-6.1-3.9-9.8c0-3.7,1.2-6.9,3.7-9.7C159.4,11.1,162.8,9.6,166.9,9.6z
			 M166.9,12.9c-2.8,0-5.3,1.1-7.3,3.2c-2.1,2.1-3.1,4.7-3.1,7.7c0,1.9,0.5,3.7,1.4,5.4c0.9,1.7,2.2,3,3.8,3.9
			c1.6,0.9,3.3,1.4,5.2,1.4c1.9,0,3.7-0.5,5.3-1.4s2.8-2.2,3.8-3.9s1.4-3.5,1.4-5.4c0-3-1-5.5-3.1-7.7
			C172.2,14,169.8,12.9,166.9,12.9z"/>
		
			<linearGradient id="XMLID_122_" gradientUnits="userSpaceOnUse" x1="0" y1="25.3142" x2="242.5341" y2="25.3142" gradientTransform="matrix(1 0 0 1 2 -1.4004)">
			<stop  offset="0" style="stop-color:#8073FA"/>
			<stop  offset="0.2849" style="stop-color:#777AFB"/>
			<stop  offset="0.757" style="stop-color:#5D8DFD"/>
			<stop  offset="0.9944" style="stop-color:#4E98FE"/>
		</linearGradient>
		<path id="XMLID_412_" class="st13" d="M194.7,25.2v-3.2c0.3-1.6,0.6-2.9,1.1-3.9c1.1-2.8,2.7-4.9,4.6-6.2c1.9-1.3,3.5-2,4.8-2
			c0.9,0,2,0.3,3,0.9l-1.8,2.9c-1.5-0.6-3-0.1-4.5,1.3c-1.5,1.4-2.5,3-3.1,4.7c-0.4,1.5-0.6,4.4-0.6,8.5v9.1h-3.5V25.2z"/>
		
			<linearGradient id="XMLID_123_" gradientUnits="userSpaceOnUse" x1="0" y1="25.3142" x2="242.5341" y2="25.3142" gradientTransform="matrix(1 0 0 1 2 -1.4004)">
			<stop  offset="0" style="stop-color:#8073FA"/>
			<stop  offset="0.2849" style="stop-color:#777AFB"/>
			<stop  offset="0.757" style="stop-color:#5D8DFD"/>
			<stop  offset="0.9944" style="stop-color:#4E98FE"/>
		</linearGradient>
		<path id="XMLID_410_" class="st14" d="M219.1,10.3h3.6l9.2,20.6l8.9-20.6h3.7l-16,36.5h-3.6l5.2-11.8L219.1,10.3z"/>
	</g>
</g>
</svg>
