<?xml version="1.0" encoding="utf-8"?>
<!-- Generator: Adobe Illustrator 19.0.0, SVG Export Plug-In . SVG Version: 6.00 Build 0)  -->
<svg version="1.1" id="Layer_1" xmlns="http://www.w3.org/2000/svg" xmlns:xlink="http://www.w3.org/1999/xlink" x="0px" y="0px"
	 viewBox="-55 228.9 786.2 105.1" style="enable-background:new -55 228.9 786.2 105.1;" xml:space="preserve">
<style type="text/css">
	.st0{fill:#358799;}
</style>
<g>
	<path class="st0" d="M-55,284.4c0-25,14.1-52.3,42-52.3c10,0,25.5,4.3,25.5,16.7c0,6.7-4.6,10.5-11.9,10.5c-4.7,0,1.6-10.8-13-10.8
		c-16.8,0-24,17.2-24,31.6c0,22,15,30.9,25,30.9c18.8,0,20.4-16.8,21.4-16.8c1.6,0,2.5,9.2,2.5,10.4c0,17-13.1,27-29.3,27
		C-42.8,331.4-55,307.7-55,284.4z"/>
	<path class="st0" d="M79.4,256c4.8,0,5,24.2,5,35.1c0,42.3-3,40.3-11.3,40.3c-12.1,0-2.9-6.4-9.4-6.4c-1,0-3.7,2.4-5.8,3.8
		c-2.1,1.3-4.7,2.6-8.5,2.6c-9.6,0-18.4-6-18.4-38.9c0-2,0.8-36.5,5.6-36.5h10.6c1.5,0,4.6-0.6,4.6,1.7c0,1.7-5.3,13.2-5.3,35
		c0,6.4-0.1,24,9.8,24c3.8,0,12.6-1.2,12.6-25.9c0-13.8-4-31.6-4-33.4c0-1.5,2.6-1.4,3.9-1.4H79.4z"/>
	<path class="st0" d="M108.8,329.7c-4,0-3.6-38.6-3.6-41.2c0-5.4-0.5-57,4.7-57h10.9c1.3,0,4.7-0.3,4.7,2.2c0,0.7-4.8,17.3-4.8,46
		c0,31.7,4.4,47.2,4.4,48.7c0,2-3,1.4-4.3,1.4H108.8z"/>
	<path class="st0" d="M169.9,241.6c0,3.1-3.5,10.1-3.5,11.5c0,2.1,0.6,3.5,2.3,3.5c1.5,0,2.9-0.6,4.4-0.6c4.4,0,4.5,3.1,4.5,7
		c0,1.6,0,6-2.4,6c-0.9,0-3.2-1-5.3-1c-6.3,0-6.3,7.4-6.3,17.6c0,30.6,6.4,35.7,6.4,37.7c0,1.7-13.4,8.2-16,8.2
		c-4.4,0-5.5-25.7-5.5-32c0-14.2,0.7-19.7,0.7-21.9c0-3.5,1-9.6-4.1-9.6c-2.1,0-3.2,1.4-4.5,1.4c-1.5,0-1.4-1.5-1.4-3.6
		c0-8.8,2.5-9.8,6.9-9.8c0.5,0,1.3,0.5,2.2,0.5c3.6,0,3.9-5.6,4.5-9.7c0.6-4.4,13.5-7.6,15.8-7.6
		C169.3,239.2,169.9,239.4,169.9,241.6z"/>
	<path class="st0" d="M242.5,256c4.8,0,5,24.2,5,35.1c0,42.3-3,40.3-11.3,40.3c-12.1,0-2.9-6.4-9.4-6.4c-1,0-3.7,2.4-5.8,3.8
		c-2.1,1.3-4.7,2.6-8.5,2.6c-9.6,0-18.4-6-18.4-38.9c0-2,0.8-36.5,5.6-36.5h10.6c1.5,0,4.6-0.6,4.6,1.7c0,1.7-5.3,13.2-5.3,35
		c0,6.4-0.1,24,9.8,24c3.8,0,12.6-1.2,12.6-25.9c0-13.8-4-31.6-4-33.4c0-1.5,2.6-1.4,3.9-1.4H242.5z"/>
	<path class="st0" d="M273.7,329.7c-4.3,0-6.3,3.6-6.3-34.6c0-31.9-0.9-39,2.3-39.2h9.6c1.7,0,3.8-0.6,3.9,1.6
		c0.2,1.7,0.5,3.9,2.8,3.9c1.7,0,3.7-1.8,6.1-3.7c2.4-1.7,5.2-3.6,8.3-3.6c5.9,0,10.7,5.1,10.7,11.3c0,8.1-6.6,12.9-10,12.9
		c-1.4,0,0.2-7.7-7.7-7.7c-9.7,0-10.4,15.5-10.4,22.5c0,22.9,3.9,32.6,3.9,34.7c-0.1,1.8-2.6,1.8-3.9,1.8H273.7z"/>
	<path class="st0" d="M351.2,281.8c3.3-0.6,6-1.2,6-5c0-5.9-6.1-9-11.2-9c-11.7,0-10,9.9-12.6,9.9c-3.7,0-7.7-4.5-7.7-9.4
		c0-8.5,9.6-14.1,20.2-14.1c3.7,0,19.5-0.1,25.3,16c2.4,6.7,2.6,40.8,2.6,44.8c0,5.1,0.9,8.1,0.9,12c0,2.4-10.8,2.6-21.1,2.6
		c-27.8,0-29.7-14.3-29.7-21.2C324,294,338.3,284,351.2,281.8z M358.3,302c0-4,0.7-8.9-4.8-8.9c-6.8,0-13.9,5.8-13.9,12.8
		c0,6.4,5.6,10.3,11.7,10.3c6.8,0,7-3.5,7-9.1V302z"/>
	<path class="st0" d="M401.4,329.7c-2.9,0-6.3,2.2-6.3-41c0-56.9,6-54.8,7.9-54.8h10.6c4.5,0,6.1,0,11.7,7.7
		c10.8,14.9,11.5,23.3,13.8,23.3c1.7,0,2.4-8.4,14.6-23.3c6.4-7.8,8.2-7.7,12.7-7.7h9c2,0,7.9-2.1,7.9,54.8c0,43.2-3.5,41-6.3,41
		h-14.7c-1.4,0-4.1,0.3-4.1-1.7c0-1.6,6.6-22.3,6.6-52.4c0-2.4,0.3-16.6-3.5-16.6c-3.3,0-7.7,11.4-8.9,14.2
		c-9.7,23.6-5.8,34.4-13.5,34.4c-9.7,0-5.9-10.8-16.1-34.4c-1.2-2.5-5-14.2-8.5-14.2c-3.8,0-3.7,14.2-3.7,16.6
		c0,30.1,7.3,50.8,7.3,52.4c0,2.1-2.8,1.7-4.1,1.7H401.4z"/>
	<path class="st0" d="M500.8,296c0-27.9,15.4-41.7,30.9-41.7c12.7,0,23.4,7.1,23.4,20.7c0,24.8-37.1,19.6-37.1,31.6
		c0,5.4,8.8,9.3,14.5,9.3c18.9,0,18.9-14.4,20.5-14.4c1.7,0,2.1,6,2.1,6.9c0,14.6-11.3,23-25.1,23
		C509.3,331.4,500.8,314.4,500.8,296z M516.3,284.6c0,1.3,0.6,2.5,2.1,2.5c1.4,0,22.3-4.6,22.3-10.5c0-5.6-5.3-8.8-9.7-8.8
		C521.7,267.9,516.3,277.9,516.3,284.6z"/>
	<path class="st0" d="M579.7,329.7c-3.9,0-6.3,3.7-6.3-30.4c0-48.5-1.5-47,14.2-47c2.4,0,5,0.1,5,1.8c0,1.4-1.4,3.6-1.4,5.2
		c0,1.2,1.2,2,2.3,2c1.4,0,3-1.4,5.5-2.6c2.5-1.4,6-2.6,10.8-2.6c5.6,0,9.3,5.3,12.2,5.3c1.6,0,3.9-0.3,6.8-2.1
		c2.9-1.6,6.4-3.2,10.6-3.2c21.2,0,20.7,27.8,20.7,42.5c0,35.1-4.4,31.2-7.7,31.2h-7.8c-1.2,0-4.4,0.2-4.4-1.8
		c0-2.1,4.4-14.7,4.4-34c0-22-7.8-24.3-12.2-24.3c-4,0-7.8-0.3-7.8,18.7c0,41.3-0.6,41.5-4.3,41.5h-10.4c-2.2,0-4,0.5-4-1.2
		c0-1.7,4.4-24.9,4.4-35.8c0-6.9,0-23.2-9.4-23.2c-8.6,0-11.9,10.6-11.9,27.8c0,23.2,3.2,27.5,3.2,30.8c0,2-2.1,1.6-3.3,1.6H579.7z"
		/>
	<path class="st0" d="M677,296c0-27.9,15.4-41.7,30.9-41.7c12.7,0,23.4,7.1,23.4,20.7c0,24.8-37.1,19.6-37.1,31.6
		c0,5.4,8.8,9.3,14.5,9.3c18.9,0,18.9-14.4,20.5-14.4c1.7,0,2.1,6,2.1,6.9c0,14.6-11.3,23-25.1,23C685.5,331.4,677,314.4,677,296z
		 M692.5,284.6c0,1.3,0.6,2.5,2.1,2.5c1.4,0,22.3-4.6,22.3-10.5c0-5.6-5.3-8.8-9.7-8.8C697.9,267.9,692.5,277.9,692.5,284.6z"/>
</g>
</svg>
