<svg xmlns="http://www.w3.org/2000/svg" viewBox="0 0 800 992"><defs><style>.cls-1,.cls-15{fill:#fff;}.cls-2{fill:#ebf0ff;}.cls-3{fill:#60a4f4;}.cls-11,.cls-14,.cls-4,.cls-7{fill:#0c0c0c;}.cls-4,.cls-9{opacity:0.08;}.cls-5{fill:#1a1aa8;}.cls-6{fill:#f9f9f9;}.cls-7{opacity:0.06;}.cls-8{fill:#4b87e0;}.cls-10{fill:#2471ce;}.cls-11{opacity:0.25;}.cls-12{fill:#c6c6c6;}.cls-13{fill:#f7b126;}.cls-14{opacity:0.03;}.cls-15{opacity:0.2;}</style></defs><title>Asset 20</title><g id="Layer_2" data-name="Layer 2"><g id="Layer_5" data-name="Layer 5"><path class="cls-1" d="M0,0H32s0,32,32,32S96,0,96,0h32s0,32,32,32c29,0,32-32,32-32h32s0,32,32,32S288,0,288,0h32s0,32,32,32S384,0,384,0h32s0,32,32,32S480,0,480,0h32s0,32,32,32S576,0,576,0h32s0,32,32,32S672,0,672,0h32s0,32,32,32S768,0,768,0h32V32s-32,0-32,32,32,32,32,32v32s-32,0-32,32,32,32,32,32v32s-32,0-32,32,32,32,32,32v32s-32,0-32,32,32,32,32,32v32s-32,0-32,32,32,32,32,32v32s-32,0-32,32,32,32,32,32v32s-32,0-32,32,32,32,32,32v32s-32,0-32,32,32,32,32,32v32s-32,0-32,32,32,32,32,32v32s-32,0-32,32,32,32,32,32v32H768s0-25.6-32-25.6S704,992,704,992H672s0-25.6-32-25.6S608,992,608,992H576s0-25.6-32-25.6S512,992,512,992H480s0-25.6-32-25.6c-25.6,0-32,25.6-32,25.6H384s0-25.6-32-25.6S320,992,320,992H288s0-25.6-32-25.6S224,992,224,992H192s0-25.6-32-25.6S128,992,128,992H96s0-25.6-32-25.6S32,992,32,992H0V966.4s25.6,0,25.6-32S0,902.4,0,902.4v-32s25.6,0,25.6-32S0,806.4,0,806.4v-32s25.6,0,25.6-32S0,710.4,0,710.4v-32s25.6,0,25.6-32S0,614.4,0,614.4v-32s25.6,0,25.6-32S0,518.4,0,518.4v-32s25.6,0,25.6-32S0,422.4,0,422.4v-32s25.6,0,25.6-32S0,326.4,0,326.4v-32s25.6,0,25.6-32S0,230.4,0,230.4v-32s25.6,0,25.6-32S0,134.4,0,134.4v-32s25.6,0,25.6-32S0,38.4,0,38.4Z"/><rect class="cls-2" x="64.75" y="64.77" width="672" height="864"/><path class="cls-3" d="M736.75,629c-10.07,19.19-46,46.65-76.5,47.39-29.07.71-57.3-9.95-67.23-19.21-45.07-42-23-129.8-67.23-182.49-53.61-63.79-189-115.52-310.63-25.92-37.82,27.87-90,97.45-102.4,160-12.67,64.12,6.4,115.2,48.05,154.07,74.65,69.65,223.93,84.37,317,76.84C560.63,833,627.65,806.5,660.24,782c17.23-12.92,58.94-53.56,76.5-95.27Z"/><path class="cls-1" d="M160.8,762.84c.46,2.46,92.31,92,317,76.84C576.2,833,653.41,791.79,655,785.56c1.95-7.85-69-14.41-80.61-15.45-24.65-2.22-99.3-14.24-216.66-21C294.56,745.42,157.78,746.76,160.8,762.84Z"/><path class="cls-4" d="M112.22,679.67A132.61,132.61,0,0,1,110,666.36c-.37-3.09-.6-5.45-1.16-13,1.05,14.27,154.17,28.54,214.37,21.87,30.54-3.39,40.71-10.84,52.65-22.64a1.6,1.6,0,0,1,2.26,0l6.67,8.91C376,673.06,335,698.2,235.64,694.55,171.4,692.19,112.22,679.67,112.22,679.67Z"/><path class="cls-5" d="M298.38,689.11c-71.65,0-120.11-9.68-120.11-9.68C159.52,676.52,138.6,673,110,666.36c-.67-5.24-.7-8.31-1.16-13,13.94,9.58,154.17,28.54,214.37,21.87,30.54-3.39,40.71-10.84,52.65-22.64a1.6,1.6,0,0,1,2.26,0l6.79,6.79a1.6,1.6,0,0,1,0,2.27c-13.53,13.38-25.68,22.46-60.28,26.3A245.81,245.81,0,0,1,298.38,689.11Z"/><circle class="cls-5" cx="345.65" cy="615.83" r="8.98"/><circle class="cls-6" cx="341.69" cy="612.21" r="3.61"/><path class="cls-7" d="M373,750c.62,8.37,6.37,66.57,55.46,91.45,8.12,4.12,22.19,9.06,27,4.72C468,834.88,404,752,391.52,751.19,383.32,750.64,376.92,750.22,373,750Z"/><path class="cls-3" d="M382.87,745.12c.62,8.37,10.42,84.41,59.51,109.29,69.93,35.44,118.22,18.87,118.82,7.39.35-6.7-23.69-20.4-41.8-44.13-19.89-26.05-16.84-47.06-15.91-79C466.21,745.88,420.15,737.93,382.87,745.12Z"/><path class="cls-8" d="M736.89,566.7c-4.5-9.48-4.86-18.19-5.3-22.89-2.32-24.38-22.84-69.44-45.45-78.72-52.35-21.5-73.39,2.88-91.08-3.93-11.86-4.57-15.66-17-19.91-13.43-6.36,5.35-5.71,49.88,18.39,90.65,8.18,13.83,30.32,41.63,62.82,56.94,28.59,13.48,60,13.19,80.53,8.65Z"/><path class="cls-9" d="M736.75,560.32C684.09,498.16,647,456.1,645.6,456c-1.58-.07-3.15,0-3.15,0l-2.56.09c-.88,12.41.32,38.47,14.23,66.75,4.7,9.55,18.26,36.18,49.6,53.72a117.2,117.2,0,0,0,33,12.38Z"/><path class="cls-10" d="M736.89,411.89c-6.71-5.25-12.72-10.58-16.59-16.35-4.56-6.8-9.39-18.89-12.36-40.93-.61-4.52-29.87,21.89-37.61,33-20.68,29.72-34.59,80-14.86,128.34a129.08,129.08,0,0,0,81.42,74.22Z"/><ellipse class="cls-11" cx="340.18" cy="445.18" rx="7.13" ry="1.91"/><path class="cls-12" d="M339,447.09c-.53,0-2.3-.24-2.3-.24l1.28-1.11c.4-.35,44.9-29.07,50.29-80.68,5.9-56.58-3.89-104.08-4-104.56a1.6,1.6,0,0,1,3.13-.66c.1.48,10,48.45,4,105.55-2.9,27.81-16.81,48.91-28,61.71C351.43,441,341.78,447,341.78,447,341.61,447.09,339.32,447.09,339,447.09Z"/><path class="cls-13" d="M382.3,251.21l-3,13c5.71-2.69,15-6.94,14.66-6.76Z"/><path class="cls-9" d="M384.23,252.33a16.43,16.43,0,0,0-2.45,1.18c-.24,1-.36,1.55-.63,2.74,0,0,3.38-2.49,4-3.15Z"/><circle class="cls-13" cx="376.34" cy="196.17" r="57.6"/><path class="cls-14" d="M367.32,138.86l18,113.78a57.6,57.6,0,0,1-18-113.78Z"/><path class="cls-15" d="M399.54,149.88c.86-1.06,9.39,3.11,16.3,9.87,2.44,2.39,10.46,10.44,12.74,23.19,1.22,6.81.75,14.67-.94,15-1.41.26-2.78-4.87-8.79-17.37-4.05-8.43-6.18-12.86-9.87-18.23C403.33,154.09,398.87,150.71,399.54,149.88Z"/></g></g></svg>